<svg width="1454.2" height="818.4000000000001" xmlns="http://www.w3.org/2000/svg" xmlns:xlink="http://www.w3.org/1999/xlink"><line x1="590.90625" y1="7.5" x2="123.3125" y2="32.0" style="stroke:black; stroke-width:1px;" />
<line x1="590.90625" y1="7.5" x2="167.3125" y2="32.0" style="stroke:black; stroke-width:1px;" />
<line x1="590.90625" y1="7.5" x2="200.3125" y2="32.0" style="stroke:black; stroke-width:1px;" />
<line x1="590.90625" y1="7.5" x2="245.8125" y2="32.0" style="stroke:black; stroke-width:1px;" />
<line x1="245.8125" y1="39.5" x2="30.0" y2="64.0" style="stroke:black; stroke-width:1px;" />
<line x1="30.0" y1="71.5" x2="30.0" y2="96.0" style="stroke:black; stroke-width:1px;" />
<line x1="245.8125" y1="39.5" x2="102.5" y2="64.0" style="stroke:black; stroke-width:1px;" />
<line x1="102.5" y1="71.5" x2="102.5" y2="96.0" style="stroke:black; stroke-width:1px;" />
<line x1="245.8125" y1="39.5" x2="239.70833333333337" y2="64.0" style="stroke:black; stroke-width:1px;" />
<line x1="245.8125" y1="39.5" x2="345.4166666666667" y2="64.0" style="stroke:black; stroke-width:1px;" />
<line x1="245.8125" y1="39.5" x2="461.625" y2="64.0" style="stroke:black; stroke-width:1px;" />
<line x1="461.625" y1="71.5" x2="126.5" y2="96.0" style="stroke:black; stroke-width:1px;" />
<line x1="461.625" y1="71.5" x2="159.5" y2="96.0" style="stroke:black; stroke-width:1px;" />
<line x1="159.5" y1="103.5" x2="116.0" y2="128.0" style="stroke:black; stroke-width:1px;" />
<line x1="116.0" y1="135.5" x2="116.0" y2="160.0" style="stroke:black; stroke-width:1px;" />
<line x1="159.5" y1="103.5" x2="169.5" y2="128.0" style="stroke:black; stroke-width:1px;" />
<line x1="169.5" y1="135.5" x2="169.5" y2="160.0" style="stroke:black; stroke-width:1px;" />
<line x1="169.5" y1="167.5" x2="169.5" y2="192.0" style="stroke:black; stroke-width:1px;" />
<line x1="159.5" y1="103.5" x2="203.0" y2="128.0" style="stroke:black; stroke-width:1px;" />
<line x1="461.625" y1="71.5" x2="280.5" y2="96.0" style="stroke:black; stroke-width:1px;" />
<line x1="280.5" y1="103.5" x2="237.0" y2="128.0" style="stroke:black; stroke-width:1px;" />
<line x1="237.0" y1="135.5" x2="237.0" y2="160.0" style="stroke:black; stroke-width:1px;" />
<line x1="280.5" y1="103.5" x2="290.5" y2="128.0" style="stroke:black; stroke-width:1px;" />
<line x1="290.5" y1="135.5" x2="290.5" y2="160.0" style="stroke:black; stroke-width:1px;" />
<line x1="290.5" y1="167.5" x2="290.5" y2="192.0" style="stroke:black; stroke-width:1px;" />
<line x1="280.5" y1="103.5" x2="324.0" y2="128.0" style="stroke:black; stroke-width:1px;" />
<line x1="461.625" y1="71.5" x2="405.75" y2="96.0" style="stroke:black; stroke-width:1px;" />
<line x1="405.75" y1="103.5" x2="355.0" y2="128.0" style="stroke:black; stroke-width:1px;" />
<line x1="355.0" y1="135.5" x2="355.0" y2="160.0" style="stroke:black; stroke-width:1px;" />
<line x1="355.0" y1="167.5" x2="355.0" y2="192.0" style="stroke:black; stroke-width:1px;" />
<line x1="405.75" y1="103.5" x2="409.5" y2="128.0" style="stroke:black; stroke-width:1px;" />
<line x1="409.5" y1="135.5" x2="409.5" y2="160.0" style="stroke:black; stroke-width:1px;" />
<line x1="405.75" y1="103.5" x2="456.5" y2="128.0" style="stroke:black; stroke-width:1px;" />
<line x1="456.5" y1="135.5" x2="456.5" y2="160.0" style="stroke:black; stroke-width:1px;" />
<line x1="456.5" y1="167.5" x2="429.25" y2="192.0" style="stroke:black; stroke-width:1px;" />
<line x1="429.25" y1="199.5" x2="398.5" y2="224.0" style="stroke:black; stroke-width:1px;" />
<line x1="398.5" y1="231.5" x2="398.5" y2="256.0" style="stroke:black; stroke-width:1px;" />
<line x1="429.25" y1="199.5" x2="445.0" y2="224.0" style="stroke:black; stroke-width:1px;" />
<line x1="429.25" y1="199.5" x2="460.0" y2="224.0" style="stroke:black; stroke-width:1px;" />
<line x1="456.5" y1="167.5" x2="483.75" y2="192.0" style="stroke:black; stroke-width:1px;" />
<line x1="461.625" y1="71.5" x2="561.75" y2="96.0" style="stroke:black; stroke-width:1px;" />
<line x1="561.75" y1="103.5" x2="511.0" y2="128.0" style="stroke:black; stroke-width:1px;" />
<line x1="511.0" y1="135.5" x2="511.0" y2="160.0" style="stroke:black; stroke-width:1px;" />
<line x1="511.0" y1="167.5" x2="511.0" y2="192.0" style="stroke:black; stroke-width:1px;" />
<line x1="561.75" y1="103.5" x2="565.5" y2="128.0" style="stroke:black; stroke-width:1px;" />
<line x1="565.5" y1="135.5" x2="565.5" y2="160.0" style="stroke:black; stroke-width:1px;" />
<line x1="561.75" y1="103.5" x2="612.5" y2="128.0" style="stroke:black; stroke-width:1px;" />
<line x1="612.5" y1="135.5" x2="612.5" y2="160.0" style="stroke:black; stroke-width:1px;" />
<line x1="612.5" y1="167.5" x2="585.25" y2="192.0" style="stroke:black; stroke-width:1px;" />
<line x1="585.25" y1="199.5" x2="554.5" y2="224.0" style="stroke:black; stroke-width:1px;" />
<line x1="554.5" y1="231.5" x2="554.5" y2="256.0" style="stroke:black; stroke-width:1px;" />
<line x1="585.25" y1="199.5" x2="601.0" y2="224.0" style="stroke:black; stroke-width:1px;" />
<line x1="585.25" y1="199.5" x2="616.0" y2="224.0" style="stroke:black; stroke-width:1px;" />
<line x1="612.5" y1="167.5" x2="639.75" y2="192.0" style="stroke:black; stroke-width:1px;" />
<line x1="461.625" y1="71.5" x2="760.25" y2="96.0" style="stroke:black; stroke-width:1px;" />
<line x1="760.25" y1="103.5" x2="760.25" y2="128.0" style="stroke:black; stroke-width:1px;" />
<line x1="760.25" y1="135.5" x2="733.0" y2="160.0" style="stroke:black; stroke-width:1px;" />
<line x1="733.0" y1="167.5" x2="685.75" y2="192.0" style="stroke:black; stroke-width:1px;" />
<line x1="685.75" y1="199.5" x2="685.75" y2="224.0" style="stroke:black; stroke-width:1px;" />
<line x1="733.0" y1="167.5" x2="732.25" y2="192.0" style="stroke:black; stroke-width:1px;" />
<line x1="733.0" y1="167.5" x2="756.25" y2="192.0" style="stroke:black; stroke-width:1px;" />
<line x1="756.25" y1="199.5" x2="756.25" y2="224.0" style="stroke:black; stroke-width:1px;" />
<line x1="756.25" y1="231.5" x2="756.25" y2="256.0" style="stroke:black; stroke-width:1px;" />
<line x1="756.25" y1="263.5" x2="685.0" y2="288.0" style="stroke:black; stroke-width:1px;" />
<line x1="685.0" y1="295.5" x2="685.0" y2="320.0" style="stroke:black; stroke-width:1px;" />
<line x1="756.25" y1="263.5" x2="731.5" y2="288.0" style="stroke:black; stroke-width:1px;" />
<line x1="756.25" y1="263.5" x2="755.5" y2="288.0" style="stroke:black; stroke-width:1px;" />
<line x1="755.5" y1="295.5" x2="755.5" y2="320.0" style="stroke:black; stroke-width:1px;" />
<line x1="755.5" y1="327.5" x2="755.5" y2="352.0" style="stroke:black; stroke-width:1px;" />
<line x1="755.5" y1="359.5" x2="755.5" y2="384.0" style="stroke:black; stroke-width:1px;" />
<line x1="756.25" y1="263.5" x2="779.5" y2="288.0" style="stroke:black; stroke-width:1px;" />
<line x1="756.25" y1="263.5" x2="803.5" y2="288.0" style="stroke:black; stroke-width:1px;" />
<line x1="803.5" y1="295.5" x2="803.5" y2="320.0" style="stroke:black; stroke-width:1px;" />
<line x1="803.5" y1="327.5" x2="803.5" y2="352.0" style="stroke:black; stroke-width:1px;" />
<line x1="803.5" y1="359.5" x2="803.5" y2="384.0" style="stroke:black; stroke-width:1px;" />
<line x1="756.25" y1="263.5" x2="827.5" y2="288.0" style="stroke:black; stroke-width:1px;" />
<line x1="733.0" y1="167.5" x2="780.25" y2="192.0" style="stroke:black; stroke-width:1px;" />
<line x1="760.25" y1="135.5" x2="787.5" y2="160.0" style="stroke:black; stroke-width:1px;" />
<line x1="461.625" y1="71.5" x2="796.75" y2="96.0" style="stroke:black; stroke-width:1px;" />
<line x1="590.90625" y1="7.5" x2="1013.0" y2="32.0" style="stroke:black; stroke-width:1px;" />
<line x1="1013.0" y1="39.5" x2="831.25" y2="64.0" style="stroke:black; stroke-width:1px;" />
<line x1="831.25" y1="71.5" x2="831.25" y2="96.0" style="stroke:black; stroke-width:1px;" />
<line x1="831.25" y1="103.5" x2="831.25" y2="128.0" style="stroke:black; stroke-width:1px;" />
<line x1="1013.0" y1="39.5" x2="903.75" y2="64.0" style="stroke:black; stroke-width:1px;" />
<line x1="903.75" y1="71.5" x2="903.75" y2="96.0" style="stroke:black; stroke-width:1px;" />
<line x1="1013.0" y1="39.5" x2="950.25" y2="64.0" style="stroke:black; stroke-width:1px;" />
<line x1="1013.0" y1="39.5" x2="984.75" y2="64.0" style="stroke:black; stroke-width:1px;" />
<line x1="984.75" y1="71.5" x2="984.75" y2="96.0" style="stroke:black; stroke-width:1px;" />
<line x1="1013.0" y1="39.5" x2="1032.25" y2="64.0" style="stroke:black; stroke-width:1px;" />
<line x1="1032.25" y1="71.5" x2="1032.25" y2="96.0" style="stroke:black; stroke-width:1px;" />
<line x1="1013.0" y1="39.5" x2="1059.75" y2="64.0" style="stroke:black; stroke-width:1px;" />
<line x1="1013.0" y1="39.5" x2="1093.75" y2="64.0" style="stroke:black; stroke-width:1px;" />
<line x1="1093.75" y1="71.5" x2="1093.75" y2="96.0" style="stroke:black; stroke-width:1px;" />
<line x1="1013.0" y1="39.5" x2="1141.25" y2="64.0" style="stroke:black; stroke-width:1px;" />
<line x1="1141.25" y1="71.5" x2="1141.25" y2="96.0" style="stroke:black; stroke-width:1px;" />
<line x1="1013.0" y1="39.5" x2="1169.25" y2="64.0" style="stroke:black; stroke-width:1px;" />
<line x1="1013.0" y1="39.5" x2="1194.75" y2="64.0" style="stroke:black; stroke-width:1px;" />
<line x1="1194.75" y1="71.5" x2="1158.25" y2="96.0" style="stroke:black; stroke-width:1px;" />
<line x1="1194.75" y1="71.5" x2="1194.75" y2="96.0" style="stroke:black; stroke-width:1px;" />
<line x1="1194.75" y1="103.5" x2="1049.25" y2="128.0" style="stroke:black; stroke-width:1px;" />
<line x1="1194.75" y1="103.5" x2="1065.25" y2="128.0" style="stroke:black; stroke-width:1px;" />
<line x1="1194.75" y1="103.5" x2="1089.25" y2="128.0" style="stroke:black; stroke-width:1px;" />
<line x1="1089.25" y1="135.5" x2="1047.75" y2="160.0" style="stroke:black; stroke-width:1px;" />
<line x1="1047.75" y1="167.5" x2="1047.75" y2="192.0" style="stroke:black; stroke-width:1px;" />
<line x1="1047.75" y1="199.5" x2="1047.75" y2="224.0" style="stroke:black; stroke-width:1px;" />
<line x1="1047.75" y1="231.5" x2="1047.75" y2="256.0" style="stroke:black; stroke-width:1px;" />
<line x1="1089.25" y1="135.5" x2="1092.25" y2="160.0" style="stroke:black; stroke-width:1px;" />
<line x1="1092.25" y1="167.5" x2="1092.25" y2="192.0" style="stroke:black; stroke-width:1px;" />
<line x1="1092.25" y1="199.5" x2="1092.25" y2="224.0" style="stroke:black; stroke-width:1px;" />
<line x1="1089.25" y1="135.5" x2="1130.75" y2="160.0" style="stroke:black; stroke-width:1px;" />
<line x1="1130.75" y1="167.5" x2="1130.75" y2="192.0" style="stroke:black; stroke-width:1px;" />
<line x1="1130.75" y1="199.5" x2="1130.75" y2="224.0" style="stroke:black; stroke-width:1px;" />
<line x1="1130.75" y1="231.5" x2="1130.75" y2="256.0" style="stroke:black; stroke-width:1px;" />
<line x1="1194.75" y1="103.5" x2="1143.25" y2="128.0" style="stroke:black; stroke-width:1px;" />
<line x1="1194.75" y1="103.5" x2="1198.75" y2="128.0" style="stroke:black; stroke-width:1px;" />
<line x1="1198.75" y1="135.5" x2="1162.25" y2="160.0" style="stroke:black; stroke-width:1px;" />
<line x1="1198.75" y1="135.5" x2="1198.75" y2="160.0" style="stroke:black; stroke-width:1px;" />
<line x1="1198.75" y1="167.5" x2="1168.75" y2="192.0" style="stroke:black; stroke-width:1px;" />
<line x1="1198.75" y1="167.5" x2="1205.25" y2="192.0" style="stroke:black; stroke-width:1px;" />
<line x1="1205.25" y1="199.5" x2="1205.25" y2="224.0" style="stroke:black; stroke-width:1px;" />
<line x1="1205.25" y1="231.5" x2="1205.25" y2="256.0" style="stroke:black; stroke-width:1px;" />
<line x1="1205.25" y1="263.5" x2="1205.25" y2="288.0" style="stroke:black; stroke-width:1px;" />
<line x1="1198.75" y1="167.5" x2="1228.75" y2="192.0" style="stroke:black; stroke-width:1px;" />
<line x1="1198.75" y1="135.5" x2="1235.25" y2="160.0" style="stroke:black; stroke-width:1px;" />
<line x1="1194.75" y1="103.5" x2="1269.5" y2="128.0" style="stroke:black; stroke-width:1px;" />
<line x1="1194.75" y1="103.5" x2="1340.25" y2="128.0" style="stroke:black; stroke-width:1px;" />
<line x1="1340.25" y1="135.5" x2="1303.75" y2="160.0" style="stroke:black; stroke-width:1px;" />
<line x1="1340.25" y1="135.5" x2="1340.25" y2="160.0" style="stroke:black; stroke-width:1px;" />
<line x1="1340.25" y1="167.5" x2="1310.25" y2="192.0" style="stroke:black; stroke-width:1px;" />
<line x1="1340.25" y1="167.5" x2="1346.75" y2="192.0" style="stroke:black; stroke-width:1px;" />
<line x1="1346.75" y1="199.5" x2="1346.75" y2="224.0" style="stroke:black; stroke-width:1px;" />
<line x1="1346.75" y1="231.5" x2="1346.75" y2="256.0" style="stroke:black; stroke-width:1px;" />
<line x1="1346.75" y1="263.5" x2="1252.75" y2="288.0" style="stroke:black; stroke-width:1px;" />
<line x1="1252.75" y1="295.5" x2="1252.75" y2="320.0" style="stroke:black; stroke-width:1px;" />
<line x1="1346.75" y1="263.5" x2="1299.25" y2="288.0" style="stroke:black; stroke-width:1px;" />
<line x1="1346.75" y1="263.5" x2="1323.25" y2="288.0" style="stroke:black; stroke-width:1px;" />
<line x1="1323.25" y1="295.5" x2="1323.25" y2="320.0" style="stroke:black; stroke-width:1px;" />
<line x1="1323.25" y1="327.5" x2="1323.25" y2="352.0" style="stroke:black; stroke-width:1px;" />
<line x1="1323.25" y1="359.5" x2="1323.25" y2="384.0" style="stroke:black; stroke-width:1px;" />
<line x1="1346.75" y1="263.5" x2="1370.0" y2="288.0" style="stroke:black; stroke-width:1px;" />
<line x1="1346.75" y1="263.5" x2="1416.75" y2="288.0" style="stroke:black; stroke-width:1px;" />
<line x1="1416.75" y1="295.5" x2="1367.75" y2="320.0" style="stroke:black; stroke-width:1px;" />
<line x1="1367.75" y1="327.5" x2="1367.75" y2="352.0" style="stroke:black; stroke-width:1px;" />
<line x1="1367.75" y1="359.5" x2="1367.75" y2="384.0" style="stroke:black; stroke-width:1px;" />
<line x1="1367.75" y1="391.5" x2="1367.75" y2="416.0" style="stroke:black; stroke-width:1px;" />
<line x1="1416.75" y1="295.5" x2="1416.75" y2="320.0" style="stroke:black; stroke-width:1px;" />
<line x1="1416.75" y1="327.5" x2="1416.75" y2="352.0" style="stroke:black; stroke-width:1px;" />
<line x1="1416.75" y1="359.5" x2="1416.75" y2="384.0" style="stroke:black; stroke-width:1px;" />
<line x1="1416.75" y1="295.5" x2="1465.75" y2="320.0" style="stroke:black; stroke-width:1px;" />
<line x1="1465.75" y1="327.5" x2="1465.75" y2="352.0" style="stroke:black; stroke-width:1px;" />
<line x1="1465.75" y1="359.5" x2="1465.75" y2="384.0" style="stroke:black; stroke-width:1px;" />
<line x1="1465.75" y1="391.5" x2="1465.75" y2="416.0" style="stroke:black; stroke-width:1px;" />
<line x1="1346.75" y1="263.5" x2="1440.75" y2="288.0" style="stroke:black; stroke-width:1px;" />
<line x1="1340.25" y1="167.5" x2="1370.25" y2="192.0" style="stroke:black; stroke-width:1px;" />
<line x1="1340.25" y1="135.5" x2="1376.75" y2="160.0" style="stroke:black; stroke-width:1px;" />
<line x1="1194.75" y1="71.5" x2="1231.25" y2="96.0" style="stroke:black; stroke-width:1px;" />
<line x1="590.90625" y1="7.5" x2="1058.5" y2="32.0" style="stroke:black; stroke-width:1px;" />
<rect x="686.0" y="160.0" width="94.0" height="15.0" style="fill:orange; stroke:rgb(0,0,0);" rx="1"/>
<text x="688" y="169" style="font-family:sans-serif;font-size:10px;">
method_call_inter
</text>
<rect x="560.5" y="160.0" width="10.0" height="15.0" style="fill:orange; stroke:rgb(0,0,0);" rx="1"/>
<text x="562" y="169" style="font-family:sans-serif;font-size:10px;">
=
</text>
<rect x="1183.75" y="224.0" width="43.0" height="15.0" style="fill:orange; stroke:rgb(0,0,0);" rx="1"/>
<text x="1185" y="233" style="font-family:sans-serif;font-size:10px;">
location
</text>
<rect x="122.5" y="96.0" width="8.0" height="15.0" style="fill:orange; stroke:rgb(0,0,0);" rx="1"/>
<text x="124" y="105" style="font-family:sans-serif;font-size:10px;">
{
</text>
<rect x="1123.75" y="64.0" width="35.0" height="15.0" style="fill:orange; stroke:rgb(0,0,0);" rx="1"/>
<text x="1125" y="73" style="font-family:sans-serif;font-size:10px;">
var_id
</text>
<rect x="108.3125" y="32.0" width="30.0" height="15.0" style="fill:orange; stroke:rgb(0,0,0);" rx="1"/>
<text x="110" y="41" style="font-family:sans-serif;font-size:10px;">
class
</text>
<rect x="137.0" y="96.0" width="45.0" height="15.0" style="fill:orange; stroke:rgb(0,0,0);" rx="1"/>
<text x="139" y="105" style="font-family:sans-serif;font-size:10px;">
vardeclr
</text>
<rect x="213.0" y="128.0" width="48.0" height="15.0" style="fill:orange; stroke:rgb(0,0,0);" rx="1"/>
<text x="215" y="137" style="font-family:sans-serif;font-size:10px;">
var_type
</text>
<rect x="337.5" y="160.0" width="35.0" height="15.0" style="fill:orange; stroke:rgb(0,0,0);" rx="1"/>
<text x="339" y="169" style="font-family:sans-serif;font-size:10px;">
var_id
</text>
<rect x="441.0" y="224.0" width="8.0" height="15.0" style="fill:orange; stroke:rgb(0,0,0);" rx="1"/>
<text x="443" y="233" style="font-family:sans-serif;font-size:10px;">
(
</text>
<rect x="493.5" y="160.0" width="35.0" height="15.0" style="fill:orange; stroke:rgb(0,0,0);" rx="1"/>
<text x="495" y="169" style="font-family:sans-serif;font-size:10px;">
var_id
</text>
<rect x="599.5" y="128.0" width="26.0" height="15.0" style="fill:orange; stroke:rgb(0,0,0);" rx="1"/>
<text x="601" y="137" style="font-family:sans-serif;font-size:10px;">
expr
</text>
<rect x="800.25" y="64.0" width="62.0" height="15.0" style="fill:orange; stroke:rgb(0,0,0);" rx="1"/>
<text x="802" y="73" style="font-family:sans-serif;font-size:10px;">
return_type
</text>
<rect x="506.0" y="192.0" width="10.0" height="15.0" style="fill:orange; stroke:rgb(0,0,0);" rx="1"/>
<text x="508" y="201" style="font-family:sans-serif;font-size:10px;">
y
</text>
<rect x="1061.25" y="128.0" width="8.0" height="15.0" style="fill:orange; stroke:rgb(0,0,0);" rx="1"/>
<text x="1063" y="137" style="font-family:sans-serif;font-size:10px;">
(
</text>
<rect x="946.25" y="64.0" width="8.0" height="15.0" style="fill:orange; stroke:rgb(0,0,0);" rx="1"/>
<text x="948" y="73" style="font-family:sans-serif;font-size:10px;">
(
</text>
<rect x="1125.75" y="256.0" width="10.0" height="15.0" style="fill:orange; stroke:rgb(0,0,0);" rx="1"/>
<text x="1127" y="265" style="font-family:sans-serif;font-size:10px;">
0
</text>
<rect x="1295.25" y="288.0" width="8.0" height="15.0" style="fill:orange; stroke:rgb(0,0,0);" rx="1"/>
<text x="1297" y="297" style="font-family:sans-serif;font-size:10px;">
(
</text>
<rect x="320.5" y="128.0" width="7.0" height="15.0" style="fill:orange; stroke:rgb(0,0,0);" rx="1"/>
<text x="322" y="137" style="font-family:sans-serif;font-size:10px;">
;
</text>
<rect x="1299.75" y="160.0" width="8.0" height="15.0" style="fill:orange; stroke:rgb(0,0,0);" rx="1"/>
<text x="1301" y="169" style="font-family:sans-serif;font-size:10px;">
{
</text>
<rect x="674.0" y="320.0" width="22.0" height="15.0" style="fill:orange; stroke:rgb(0,0,0);" rx="1"/>
<text x="676" y="329" style="font-family:sans-serif;font-size:10px;">
gcd
</text>
<rect x="672.75" y="224.0" width="26.0" height="15.0" style="fill:orange; stroke:rgb(0,0,0);" rx="1"/>
<text x="674" y="233" style="font-family:sans-serif;font-size:10px;">
print
</text>
<rect x="1054.5" y="32.0" width="8.0" height="15.0" style="fill:orange; stroke:rgb(0,0,0);" rx="1"/>
<text x="1056" y="41" style="font-family:sans-serif;font-size:10px;">
}
</text>
<rect x="333.5" y="128.0" width="43.0" height="15.0" style="fill:orange; stroke:rgb(0,0,0);" rx="1"/>
<text x="335" y="137" style="font-family:sans-serif;font-size:10px;">
location
</text>
<rect x="273.0" y="160.0" width="35.0" height="15.0" style="fill:orange; stroke:rgb(0,0,0);" rx="1"/>
<text x="275" y="169" style="font-family:sans-serif;font-size:10px;">
var_id
</text>
<rect x="580.0" y="160.0" width="65.0" height="15.0" style="fill:orange; stroke:rgb(0,0,0);" rx="1"/>
<text x="582" y="169" style="font-family:sans-serif;font-size:10px;">
method_call
</text>
<rect x="1085.75" y="96.0" width="16.0" height="15.0" style="fill:orange; stroke:rgb(0,0,0);" rx="1"/>
<text x="1087" y="105" style="font-family:sans-serif;font-size:10px;">
int
</text>
<rect x="1158.25" y="160.0" width="8.0" height="15.0" style="fill:orange; stroke:rgb(0,0,0);" rx="1"/>
<text x="1160" y="169" style="font-family:sans-serif;font-size:10px;">
{
</text>
<rect x="209.3125" y="32.0" width="73.0" height="15.0" style="fill:orange; stroke:rgb(0,0,0);" rx="1"/>
<text x="211" y="41" style="font-family:sans-serif;font-size:10px;">
method_declr
</text>
<rect x="1318.25" y="384.0" width="10.0" height="15.0" style="fill:orange; stroke:rgb(0,0,0);" rx="1"/>
<text x="1320" y="393" style="font-family:sans-serif;font-size:10px;">
b
</text>
<rect x="1200.25" y="288.0" width="10.0" height="15.0" style="fill:orange; stroke:rgb(0,0,0);" rx="1"/>
<text x="1202" y="297" style="font-family:sans-serif;font-size:10px;">
a
</text>
<rect x="1167.75" y="96.0" width="54.0" height="15.0" style="fill:orange; stroke:rgb(0,0,0);" rx="1"/>
<text x="1169" y="105" style="font-family:sans-serif;font-size:10px;">
statement
</text>
<rect x="976.5" y="32.0" width="73.0" height="15.0" style="fill:orange; stroke:rgb(0,0,0);" rx="1"/>
<text x="978" y="41" style="font-family:sans-serif;font-size:10px;">
method_declr
</text>
<rect x="976.75" y="96.0" width="16.0" height="15.0" style="fill:orange; stroke:rgb(0,0,0);" rx="1"/>
<text x="978" y="105" style="font-family:sans-serif;font-size:10px;">
int
</text>
<rect x="1366.75" y="192.0" width="7.0" height="15.0" style="fill:orange; stroke:rgb(0,0,0);" rx="1"/>
<text x="1368" y="201" style="font-family:sans-serif;font-size:10px;">
;
</text>
<rect x="1042.75" y="256.0" width="10.0" height="15.0" style="fill:orange; stroke:rgb(0,0,0);" rx="1"/>
<text x="1044" y="265" style="font-family:sans-serif;font-size:10px;">
b
</text>
<rect x="538.25" y="192.0" width="94.0" height="15.0" style="fill:orange; stroke:rgb(0,0,0);" rx="1"/>
<text x="540" y="201" style="font-family:sans-serif;font-size:10px;">
method_call_inter
</text>
<rect x="1403.75" y="288.0" width="26.0" height="15.0" style="fill:orange; stroke:rgb(0,0,0);" rx="1"/>
<text x="1405" y="297" style="font-family:sans-serif;font-size:10px;">
expr
</text>
<rect x="1350.25" y="384.0" width="35.0" height="15.0" style="fill:orange; stroke:rgb(0,0,0);" rx="1"/>
<text x="1352" y="393" style="font-family:sans-serif;font-size:10px;">
var_id
</text>
<rect x="709.25" y="256.0" width="94.0" height="15.0" style="fill:orange; stroke:rgb(0,0,0);" rx="1"/>
<text x="711" y="265" style="font-family:sans-serif;font-size:10px;">
method_call_inter
</text>
<rect x="1460.75" y="416.0" width="10.0" height="15.0" style="fill:orange; stroke:rgb(0,0,0);" rx="1"/>
<text x="1462" y="425" style="font-family:sans-serif;font-size:10px;">
b
</text>
<rect x="199.5" y="128.0" width="7.0" height="15.0" style="fill:orange; stroke:rgb(0,0,0);" rx="1"/>
<text x="201" y="137" style="font-family:sans-serif;font-size:10px;">
;
</text>
<rect x="647.75" y="192.0" width="76.0" height="15.0" style="fill:orange; stroke:rgb(0,0,0);" rx="1"/>
<text x="649" y="201" style="font-family:sans-serif;font-size:10px;">
method_name
</text>
<rect x="456.0" y="224.0" width="8.0" height="15.0" style="fill:orange; stroke:rgb(0,0,0);" rx="1"/>
<text x="458" y="233" style="font-family:sans-serif;font-size:10px;">
)
</text>
<rect x="1301.75" y="320.0" width="43.0" height="15.0" style="fill:orange; stroke:rgb(0,0,0);" rx="1"/>
<text x="1303" y="329" style="font-family:sans-serif;font-size:10px;">
location
</text>
<rect x="1436.75" y="288.0" width="8.0" height="15.0" style="fill:orange; stroke:rgb(0,0,0);" rx="1"/>
<text x="1438" y="297" style="font-family:sans-serif;font-size:10px;">
)
</text>
<rect x="424.0" y="160.0" width="65.0" height="15.0" style="fill:orange; stroke:rgb(0,0,0);" rx="1"/>
<text x="426" y="169" style="font-family:sans-serif;font-size:10px;">
method_call
</text>
<rect x="146.0" y="128.0" width="47.0" height="15.0" style="fill:orange; stroke:rgb(0,0,0);" rx="1"/>
<text x="148" y="137" style="font-family:sans-serif;font-size:10px;">
field_var
</text>
<rect x="727.5" y="288.0" width="8.0" height="15.0" style="fill:orange; stroke:rgb(0,0,0);" rx="1"/>
<text x="729" y="297" style="font-family:sans-serif;font-size:10px;">
(
</text>
<rect x="1314.25" y="224.0" width="65.0" height="15.0" style="fill:orange; stroke:rgb(0,0,0);" rx="1"/>
<text x="1316" y="233" style="font-family:sans-serif;font-size:10px;">
method_call
</text>
<rect x="1452.75" y="320.0" width="26.0" height="15.0" style="fill:orange; stroke:rgb(0,0,0);" rx="1"/>
<text x="1454" y="329" style="font-family:sans-serif;font-size:10px;">
expr
</text>
<rect x="537.5" y="128.0" width="56.0" height="15.0" style="fill:orange; stroke:rgb(0,0,0);" rx="1"/>
<text x="539" y="137" style="font-family:sans-serif;font-size:10px;">
assign_op
</text>
<rect x="597.0" y="224.0" width="8.0" height="15.0" style="fill:orange; stroke:rgb(0,0,0);" rx="1"/>
<text x="599" y="233" style="font-family:sans-serif;font-size:10px;">
(
</text>
<rect x="734.0" y="320.0" width="43.0" height="15.0" style="fill:orange; stroke:rgb(0,0,0);" rx="1"/>
<text x="736" y="329" style="font-family:sans-serif;font-size:10px;">
location
</text>
<rect x="1044.25" y="128.0" width="10.0" height="15.0" style="fill:orange; stroke:rgb(0,0,0);" rx="1"/>
<text x="1046" y="137" style="font-family:sans-serif;font-size:10px;">
if
</text>
<rect x="1030.25" y="224.0" width="35.0" height="15.0" style="fill:orange; stroke:rgb(0,0,0);" rx="1"/>
<text x="1032" y="233" style="font-family:sans-serif;font-size:10px;">
var_id
</text>
<rect x="1165.25" y="64.0" width="8.0" height="15.0" style="fill:orange; stroke:rgb(0,0,0);" rx="1"/>
<text x="1167" y="73" style="font-family:sans-serif;font-size:10px;">
)
</text>
<rect x="1231.25" y="160.0" width="8.0" height="15.0" style="fill:orange; stroke:rgb(0,0,0);" rx="1"/>
<text x="1233" y="169" style="font-family:sans-serif;font-size:10px;">
}
</text>
<rect x="480.25" y="192.0" width="7.0" height="15.0" style="fill:orange; stroke:rgb(0,0,0);" rx="1"/>
<text x="482" y="201" style="font-family:sans-serif;font-size:10px;">
;
</text>
<rect x="516.5" y="224.0" width="76.0" height="15.0" style="fill:orange; stroke:rgb(0,0,0);" rx="1"/>
<text x="518" y="233" style="font-family:sans-serif;font-size:10px;">
method_name
</text>
<rect x="267.0" y="128.0" width="47.0" height="15.0" style="fill:orange; stroke:rgb(0,0,0);" rx="1"/>
<text x="269" y="137" style="font-family:sans-serif;font-size:10px;">
field_var
</text>
<rect x="165.0" y="192.0" width="9.0" height="15.0" style="fill:orange; stroke:rgb(0,0,0);" rx="1"/>
<text x="167" y="201" style="font-family:sans-serif;font-size:10px;">
x
</text>
<rect x="285.5" y="192.0" width="10.0" height="15.0" style="fill:orange; stroke:rgb(0,0,0);" rx="1"/>
<text x="287" y="201" style="font-family:sans-serif;font-size:10px;">
y
</text>
<rect x="636.25" y="192.0" width="7.0" height="15.0" style="fill:orange; stroke:rgb(0,0,0);" rx="1"/>
<text x="638" y="201" style="font-family:sans-serif;font-size:10px;">
;
</text>
<rect x="790.5" y="288.0" width="26.0" height="15.0" style="fill:orange; stroke:rgb(0,0,0);" rx="1"/>
<text x="792" y="297" style="font-family:sans-serif;font-size:10px;">
expr
</text>
<rect x="1073.25" y="160.0" width="38.0" height="15.0" style="fill:orange; stroke:rgb(0,0,0);" rx="1"/>
<text x="1075" y="169" style="font-family:sans-serif;font-size:10px;">
bin_op
</text>
<rect x="1366.5" y="288.0" width="7.0" height="15.0" style="fill:orange; stroke:rgb(0,0,0);" rx="1"/>
<text x="1368" y="297" style="font-family:sans-serif;font-size:10px;">
,
</text>
<rect x="1393.75" y="352.0" width="46.0" height="15.0" style="fill:orange; stroke:rgb(0,0,0);" rx="1"/>
<text x="1395" y="361" style="font-family:sans-serif;font-size:10px;">
arith_op
</text>
<rect x="792.75" y="96.0" width="8.0" height="15.0" style="fill:orange; stroke:rgb(0,0,0);" rx="1"/>
<text x="794" y="105" style="font-family:sans-serif;font-size:10px;">
}
</text>
<rect x="1325.25" y="128.0" width="30.0" height="15.0" style="fill:orange; stroke:rgb(0,0,0);" rx="1"/>
<text x="1327" y="137" style="font-family:sans-serif;font-size:10px;">
block
</text>
<rect x="1083.75" y="224.0" width="17.0" height="15.0" style="fill:orange; stroke:rgb(0,0,0);" rx="1"/>
<text x="1085" y="233" style="font-family:sans-serif;font-size:10px;">
==
</text>
<rect x="1154.25" y="96.0" width="8.0" height="15.0" style="fill:orange; stroke:rgb(0,0,0);" rx="1"/>
<text x="1156" y="105" style="font-family:sans-serif;font-size:10px;">
{
</text>
<rect x="567.90625" y="0.0" width="46.0" height="15.0" style="fill:orange; stroke:rgb(0,0,0);" rx="1"/>
<text x="569" y="9" style="font-family:sans-serif;font-size:10px;">
program
</text>
<rect x="776.0" y="288.0" width="7.0" height="15.0" style="fill:orange; stroke:rgb(0,0,0);" rx="1"/>
<text x="778" y="297" style="font-family:sans-serif;font-size:10px;">
,
</text>
<rect x="443.5" y="128.0" width="26.0" height="15.0" style="fill:orange; stroke:rgb(0,0,0);" rx="1"/>
<text x="445" y="137" style="font-family:sans-serif;font-size:10px;">
expr
</text>
<rect x="143.8125" y="32.0" width="47.0" height="15.0" style="fill:orange; stroke:rgb(0,0,0);" rx="1"/>
<text x="145" y="41" style="font-family:sans-serif;font-size:10px;">
Program
</text>
<rect x="534.75" y="96.0" width="54.0" height="15.0" style="fill:orange; stroke:rgb(0,0,0);" rx="1"/>
<text x="536" y="105" style="font-family:sans-serif;font-size:10px;">
statement
</text>
<rect x="1305.75" y="352.0" width="35.0" height="15.0" style="fill:orange; stroke:rgb(0,0,0);" rx="1"/>
<text x="1307" y="361" style="font-family:sans-serif;font-size:10px;">
var_id
</text>
<rect x="1136.25" y="96.0" width="10.0" height="15.0" style="fill:orange; stroke:rgb(0,0,0);" rx="1"/>
<text x="1138" y="105" style="font-family:sans-serif;font-size:10px;">
b
</text>
<rect x="258.0" y="96.0" width="45.0" height="15.0" style="fill:orange; stroke:rgb(0,0,0);" rx="1"/>
<text x="260" y="105" style="font-family:sans-serif;font-size:10px;">
vardeclr
</text>
<rect x="1056.25" y="64.0" width="7.0" height="15.0" style="fill:orange; stroke:rgb(0,0,0);" rx="1"/>
<text x="1058" y="73" style="font-family:sans-serif;font-size:10px;">
,
</text>
<rect x="1026.25" y="192.0" width="43.0" height="15.0" style="fill:orange; stroke:rgb(0,0,0);" rx="1"/>
<text x="1028" y="201" style="font-family:sans-serif;font-size:10px;">
location
</text>
<rect x="196.3125" y="32.0" width="8.0" height="15.0" style="fill:orange; stroke:rgb(0,0,0);" rx="1"/>
<text x="198" y="41" style="font-family:sans-serif;font-size:10px;">
{
</text>
<rect x="404.5" y="160.0" width="10.0" height="15.0" style="fill:orange; stroke:rgb(0,0,0);" rx="1"/>
<text x="406" y="169" style="font-family:sans-serif;font-size:10px;">
=
</text>
<rect x="385.0" y="256.0" width="27.0" height="15.0" style="fill:orange; stroke:rgb(0,0,0);" rx="1"/>
<text x="387" y="265" style="font-family:sans-serif;font-size:10px;">
read
</text>
<rect x="865.75" y="64.0" width="76.0" height="15.0" style="fill:orange; stroke:rgb(0,0,0);" rx="1"/>
<text x="867" y="73" style="font-family:sans-serif;font-size:10px;">
method_name
</text>
<rect x="798.5" y="384.0" width="10.0" height="15.0" style="fill:orange; stroke:rgb(0,0,0);" rx="1"/>
<text x="800" y="393" style="font-family:sans-serif;font-size:10px;">
y
</text>
<rect x="541.0" y="256.0" width="27.0" height="15.0" style="fill:orange; stroke:rgb(0,0,0);" rx="1"/>
<text x="543" y="265" style="font-family:sans-serif;font-size:10px;">
read
</text>
<rect x="807.25" y="96.0" width="48.0" height="15.0" style="fill:orange; stroke:rgb(0,0,0);" rx="1"/>
<text x="809" y="105" style="font-family:sans-serif;font-size:10px;">
var_type
</text>
<rect x="728.25" y="192.0" width="8.0" height="15.0" style="fill:orange; stroke:rgb(0,0,0);" rx="1"/>
<text x="730" y="201" style="font-family:sans-serif;font-size:10px;">
(
</text>
<rect x="782.0" y="320.0" width="43.0" height="15.0" style="fill:orange; stroke:rgb(0,0,0);" rx="1"/>
<text x="784" y="329" style="font-family:sans-serif;font-size:10px;">
location
</text>
<rect x="1014.75" y="64.0" width="35.0" height="15.0" style="fill:orange; stroke:rgb(0,0,0);" rx="1"/>
<text x="1016" y="73" style="font-family:sans-serif;font-size:10px;">
var_id
</text>
<rect x="1187.75" y="256.0" width="35.0" height="15.0" style="fill:orange; stroke:rgb(0,0,0);" rx="1"/>
<text x="1189" y="265" style="font-family:sans-serif;font-size:10px;">
var_id
</text>
<rect x="235.70833333333337" y="64.0" width="8.0" height="15.0" style="fill:orange; stroke:rgb(0,0,0);" rx="1"/>
<text x="237" y="73" style="font-family:sans-serif;font-size:10px;">
(
</text>
<rect x="341.4166666666667" y="64.0" width="8.0" height="15.0" style="fill:orange; stroke:rgb(0,0,0);" rx="1"/>
<text x="343" y="73" style="font-family:sans-serif;font-size:10px;">
)
</text>
<rect x="733.25" y="96.0" width="54.0" height="15.0" style="fill:orange; stroke:rgb(0,0,0);" rx="1"/>
<text x="735" y="105" style="font-family:sans-serif;font-size:10px;">
statement
</text>
<rect x="350.5" y="192.0" width="9.0" height="15.0" style="fill:orange; stroke:rgb(0,0,0);" rx="1"/>
<text x="352" y="201" style="font-family:sans-serif;font-size:10px;">
x
</text>
<rect x="381.5" y="128.0" width="56.0" height="15.0" style="fill:orange; stroke:rgb(0,0,0);" rx="1"/>
<text x="383" y="137" style="font-family:sans-serif;font-size:10px;">
assign_op
</text>
<rect x="892.75" y="96.0" width="22.0" height="15.0" style="fill:orange; stroke:rgb(0,0,0);" rx="1"/>
<text x="894" y="105" style="font-family:sans-serif;font-size:10px;">
gcd
</text>
<rect x="1151.75" y="192.0" width="34.0" height="15.0" style="fill:orange; stroke:rgb(0,0,0);" rx="1"/>
<text x="1153" y="201" style="font-family:sans-serif;font-size:10px;">
return
</text>
<rect x="784.0" y="160.0" width="7.0" height="15.0" style="fill:orange; stroke:rgb(0,0,0);" rx="1"/>
<text x="786" y="169" style="font-family:sans-serif;font-size:10px;">
;
</text>
<rect x="1183.75" y="128.0" width="30.0" height="15.0" style="fill:orange; stroke:rgb(0,0,0);" rx="1"/>
<text x="1185" y="137" style="font-family:sans-serif;font-size:10px;">
block
</text>
<rect x="1105.75" y="224.0" width="50.0" height="15.0" style="fill:orange; stroke:rgb(0,0,0);" rx="1"/>
<text x="1107" y="233" style="font-family:sans-serif;font-size:10px;">
int_literal
</text>
<rect x="88.5" y="96.0" width="28.0" height="15.0" style="fill:orange; stroke:rgb(0,0,0);" rx="1"/>
<text x="90" y="105" style="font-family:sans-serif;font-size:10px;">
main
</text>
<rect x="92.0" y="128.0" width="48.0" height="15.0" style="fill:orange; stroke:rgb(0,0,0);" rx="1"/>
<text x="94" y="137" style="font-family:sans-serif;font-size:10px;">
var_type
</text>
<rect x="1074.25" y="192.0" width="36.0" height="15.0" style="fill:orange; stroke:rgb(0,0,0);" rx="1"/>
<text x="1076" y="201" style="font-family:sans-serif;font-size:10px;">
eq_op
</text>
<rect x="1139.25" y="128.0" width="8.0" height="15.0" style="fill:orange; stroke:rgb(0,0,0);" rx="1"/>
<text x="1141" y="137" style="font-family:sans-serif;font-size:10px;">
)
</text>
<rect x="1333.75" y="192.0" width="26.0" height="15.0" style="fill:orange; stroke:rgb(0,0,0);" rx="1"/>
<text x="1335" y="201" style="font-family:sans-serif;font-size:10px;">
expr
</text>
<rect x="1448.25" y="384.0" width="35.0" height="15.0" style="fill:orange; stroke:rgb(0,0,0);" rx="1"/>
<text x="1450" y="393" style="font-family:sans-serif;font-size:10px;">
var_id
</text>
<rect x="1444.25" y="352.0" width="43.0" height="15.0" style="fill:orange; stroke:rgb(0,0,0);" rx="1"/>
<text x="1446" y="361" style="font-family:sans-serif;font-size:10px;">
location
</text>
<rect x="1027.25" y="96.0" width="10.0" height="15.0" style="fill:orange; stroke:rgb(0,0,0);" rx="1"/>
<text x="1029" y="105" style="font-family:sans-serif;font-size:10px;">
a
</text>
<rect x="1293.25" y="192.0" width="34.0" height="15.0" style="fill:orange; stroke:rgb(0,0,0);" rx="1"/>
<text x="1295" y="201" style="font-family:sans-serif;font-size:10px;">
return
</text>
<rect x="823.25" y="128.0" width="16.0" height="15.0" style="fill:orange; stroke:rgb(0,0,0);" rx="1"/>
<text x="825" y="137" style="font-family:sans-serif;font-size:10px;">
int
</text>
<rect x="1372.75" y="160.0" width="8.0" height="15.0" style="fill:orange; stroke:rgb(0,0,0);" rx="1"/>
<text x="1374" y="169" style="font-family:sans-serif;font-size:10px;">
}
</text>
<rect x="1076.25" y="128.0" width="26.0" height="15.0" style="fill:orange; stroke:rgb(0,0,0);" rx="1"/>
<text x="1078" y="137" style="font-family:sans-serif;font-size:10px;">
expr
</text>
<rect x="1171.75" y="160.0" width="54.0" height="15.0" style="fill:orange; stroke:rgb(0,0,0);" rx="1"/>
<text x="1173" y="169" style="font-family:sans-serif;font-size:10px;">
statement
</text>
<rect x="446.625" y="64.0" width="30.0" height="15.0" style="fill:orange; stroke:rgb(0,0,0);" rx="1"/>
<text x="448" y="73" style="font-family:sans-serif;font-size:10px;">
block
</text>
<rect x="960.75" y="64.0" width="48.0" height="15.0" style="fill:orange; stroke:rgb(0,0,0);" rx="1"/>
<text x="962" y="73" style="font-family:sans-serif;font-size:10px;">
var_type
</text>
<rect x="382.25" y="192.0" width="94.0" height="15.0" style="fill:orange; stroke:rgb(0,0,0);" rx="1"/>
<text x="384" y="201" style="font-family:sans-serif;font-size:10px;">
method_call_inter
</text>
<rect x="743.25" y="192.0" width="26.0" height="15.0" style="fill:orange; stroke:rgb(0,0,0);" rx="1"/>
<text x="745" y="201" style="font-family:sans-serif;font-size:10px;">
expr
</text>
<rect x="723.75" y="224.0" width="65.0" height="15.0" style="fill:orange; stroke:rgb(0,0,0);" rx="1"/>
<text x="725" y="233" style="font-family:sans-serif;font-size:10px;">
method_call
</text>
<rect x="1069.75" y="64.0" width="48.0" height="15.0" style="fill:orange; stroke:rgb(0,0,0);" rx="1"/>
<text x="1071" y="73" style="font-family:sans-serif;font-size:10px;">
var_type
</text>
<rect x="1179.75" y="64.0" width="30.0" height="15.0" style="fill:orange; stroke:rgb(0,0,0);" rx="1"/>
<text x="1181" y="73" style="font-family:sans-serif;font-size:10px;">
block
</text>
<rect x="612.0" y="224.0" width="8.0" height="15.0" style="fill:orange; stroke:rgb(0,0,0);" rx="1"/>
<text x="614" y="233" style="font-family:sans-serif;font-size:10px;">
)
</text>
<rect x="776.25" y="192.0" width="8.0" height="15.0" style="fill:orange; stroke:rgb(0,0,0);" rx="1"/>
<text x="778" y="201" style="font-family:sans-serif;font-size:10px;">
)
</text>
<rect x="1225.25" y="192.0" width="7.0" height="15.0" style="fill:orange; stroke:rgb(0,0,0);" rx="1"/>
<text x="1227" y="201" style="font-family:sans-serif;font-size:10px;">
;
</text>
<rect x="1362.75" y="416.0" width="10.0" height="15.0" style="fill:orange; stroke:rgb(0,0,0);" rx="1"/>
<text x="1364" y="425" style="font-family:sans-serif;font-size:10px;">
a
</text>
<rect x="1257.0" y="128.0" width="25.0" height="15.0" style="fill:orange; stroke:rgb(0,0,0);" rx="1"/>
<text x="1259" y="137" style="font-family:sans-serif;font-size:10px;">
else
</text>
<rect x="17.5" y="96.0" width="25.0" height="15.0" style="fill:orange; stroke:rgb(0,0,0);" rx="1"/>
<text x="19" y="105" style="font-family:sans-serif;font-size:10px;">
void
</text>
<rect x="489.5" y="128.0" width="43.0" height="15.0" style="fill:orange; stroke:rgb(0,0,0);" rx="1"/>
<text x="491" y="137" style="font-family:sans-serif;font-size:10px;">
location
</text>
<rect x="1346.25" y="352.0" width="43.0" height="15.0" style="fill:orange; stroke:rgb(0,0,0);" rx="1"/>
<text x="1348" y="361" style="font-family:sans-serif;font-size:10px;">
location
</text>
<rect x="727.75" y="128.0" width="65.0" height="15.0" style="fill:orange; stroke:rgb(0,0,0);" rx="1"/>
<text x="729" y="137" style="font-family:sans-serif;font-size:10px;">
method_call
</text>
<rect x="1241.75" y="320.0" width="22.0" height="15.0" style="fill:orange; stroke:rgb(0,0,0);" rx="1"/>
<text x="1243" y="329" style="font-family:sans-serif;font-size:10px;">
gcd
</text>
<rect x="742.5" y="288.0" width="26.0" height="15.0" style="fill:orange; stroke:rgb(0,0,0);" rx="1"/>
<text x="744" y="297" style="font-family:sans-serif;font-size:10px;">
expr
</text>
<rect x="360.5" y="224.0" width="76.0" height="15.0" style="fill:orange; stroke:rgb(0,0,0);" rx="1"/>
<text x="362" y="233" style="font-family:sans-serif;font-size:10px;">
method_name
</text>
<rect x="738.0" y="352.0" width="35.0" height="15.0" style="fill:orange; stroke:rgb(0,0,0);" rx="1"/>
<text x="740" y="361" style="font-family:sans-serif;font-size:10px;">
var_id
</text>
<rect x="823.5" y="288.0" width="8.0" height="15.0" style="fill:orange; stroke:rgb(0,0,0);" rx="1"/>
<text x="825" y="297" style="font-family:sans-serif;font-size:10px;">
)
</text>
<rect x="1214.75" y="288.0" width="76.0" height="15.0" style="fill:orange; stroke:rgb(0,0,0);" rx="1"/>
<text x="1216" y="297" style="font-family:sans-serif;font-size:10px;">
method_name
</text>
<rect x="152.0" y="160.0" width="35.0" height="15.0" style="fill:orange; stroke:rgb(0,0,0);" rx="1"/>
<text x="154" y="169" style="font-family:sans-serif;font-size:10px;">
var_id
</text>
<rect x="1227.25" y="96.0" width="8.0" height="15.0" style="fill:orange; stroke:rgb(0,0,0);" rx="1"/>
<text x="1229" y="105" style="font-family:sans-serif;font-size:10px;">
}
</text>
<rect x="1192.25" y="192.0" width="26.0" height="15.0" style="fill:orange; stroke:rgb(0,0,0);" rx="1"/>
<text x="1194" y="201" style="font-family:sans-serif;font-size:10px;">
expr
</text>
<rect x="751.0" y="384.0" width="9.0" height="15.0" style="fill:orange; stroke:rgb(0,0,0);" rx="1"/>
<text x="753" y="393" style="font-family:sans-serif;font-size:10px;">
x
</text>
<rect x="1117.75" y="160.0" width="26.0" height="15.0" style="fill:orange; stroke:rgb(0,0,0);" rx="1"/>
<text x="1119" y="169" style="font-family:sans-serif;font-size:10px;">
expr
</text>
<rect x="1354.75" y="320.0" width="26.0" height="15.0" style="fill:orange; stroke:rgb(0,0,0);" rx="1"/>
<text x="1356" y="329" style="font-family:sans-serif;font-size:10px;">
expr
</text>
<rect x="1034.75" y="160.0" width="26.0" height="15.0" style="fill:orange; stroke:rgb(0,0,0);" rx="1"/>
<text x="1036" y="169" style="font-family:sans-serif;font-size:10px;">
expr
</text>
<rect x="1397.75" y="320.0" width="38.0" height="15.0" style="fill:orange; stroke:rgb(0,0,0);" rx="1"/>
<text x="1399" y="329" style="font-family:sans-serif;font-size:10px;">
bin_op
</text>
<rect x="647.0" y="288.0" width="76.0" height="15.0" style="fill:orange; stroke:rgb(0,0,0);" rx="1"/>
<text x="649" y="297" style="font-family:sans-serif;font-size:10px;">
method_name
</text>
<rect x="1409.75" y="384.0" width="14.0" height="15.0" style="fill:orange; stroke:rgb(0,0,0);" rx="1"/>
<text x="1411" y="393" style="font-family:sans-serif;font-size:10px;">
%
</text>
<rect x="64.5" y="64.0" width="76.0" height="15.0" style="fill:orange; stroke:rgb(0,0,0);" rx="1"/>
<text x="66" y="73" style="font-family:sans-serif;font-size:10px;">
method_name
</text>
<rect x="1115.25" y="192.0" width="31.0" height="15.0" style="fill:orange; stroke:rgb(0,0,0);" rx="1"/>
<text x="1117" y="201" style="font-family:sans-serif;font-size:10px;">
literal
</text>
<rect x="378.75" y="96.0" width="54.0" height="15.0" style="fill:orange; stroke:rgb(0,0,0);" rx="1"/>
<text x="380" y="105" style="font-family:sans-serif;font-size:10px;">
statement
</text>
<rect x="-1.0" y="64.0" width="62.0" height="15.0" style="fill:orange; stroke:rgb(0,0,0);" rx="1"/>
<text x="1" y="73" style="font-family:sans-serif;font-size:10px;">
return_type
</text>
<rect x="229.0" y="160.0" width="16.0" height="15.0" style="fill:orange; stroke:rgb(0,0,0);" rx="1"/>
<text x="231" y="169" style="font-family:sans-serif;font-size:10px;">
int
</text>
<rect x="786.0" y="352.0" width="35.0" height="15.0" style="fill:orange; stroke:rgb(0,0,0);" rx="1"/>
<text x="788" y="361" style="font-family:sans-serif;font-size:10px;">
var_id
</text>
<rect x="1299.75" y="256.0" width="94.0" height="15.0" style="fill:orange; stroke:rgb(0,0,0);" rx="1"/>
<text x="1301" y="265" style="font-family:sans-serif;font-size:10px;">
method_call_inter
</text>
<rect x="1310.25" y="288.0" width="26.0" height="15.0" style="fill:orange; stroke:rgb(0,0,0);" rx="1"/>
<text x="1312" y="297" style="font-family:sans-serif;font-size:10px;">
expr
</text>
<rect x="108.0" y="160.0" width="16.0" height="15.0" style="fill:orange; stroke:rgb(0,0,0);" rx="1"/>
<text x="110" y="169" style="font-family:sans-serif;font-size:10px;">
int
</text>
<rect x="1313.25" y="160.0" width="54.0" height="15.0" style="fill:orange; stroke:rgb(0,0,0);" rx="1"/>
<text x="1315" y="169" style="font-family:sans-serif;font-size:10px;">
statement
</text>
</svg>