<svg width="1601.6000000000001" height="801.9000000000001" xmlns="http://www.w3.org/2000/svg" xmlns:xlink="http://www.w3.org/1999/xlink"><line x1="589.984375" y1="7.5" x2="160.375" y2="32.0" style="stroke:black; stroke-width:1px;" />
<line x1="589.984375" y1="7.5" x2="204.375" y2="32.0" style="stroke:black; stroke-width:1px;" />
<line x1="589.984375" y1="7.5" x2="237.375" y2="32.0" style="stroke:black; stroke-width:1px;" />
<line x1="589.984375" y1="7.5" x2="282.875" y2="32.0" style="stroke:black; stroke-width:1px;" />
<line x1="282.875" y1="39.5" x2="30.0" y2="64.0" style="stroke:black; stroke-width:1px;" />
<line x1="30.0" y1="71.5" x2="30.0" y2="96.0" style="stroke:black; stroke-width:1px;" />
<line x1="30.0" y1="103.5" x2="30.0" y2="128.0" style="stroke:black; stroke-width:1px;" />
<line x1="282.875" y1="39.5" x2="102.5" y2="64.0" style="stroke:black; stroke-width:1px;" />
<line x1="102.5" y1="71.5" x2="102.5" y2="96.0" style="stroke:black; stroke-width:1px;" />
<line x1="282.875" y1="39.5" x2="149.0" y2="64.0" style="stroke:black; stroke-width:1px;" />
<line x1="282.875" y1="39.5" x2="183.5" y2="64.0" style="stroke:black; stroke-width:1px;" />
<line x1="183.5" y1="71.5" x2="183.5" y2="96.0" style="stroke:black; stroke-width:1px;" />
<line x1="282.875" y1="39.5" x2="231.0" y2="64.0" style="stroke:black; stroke-width:1px;" />
<line x1="231.0" y1="71.5" x2="231.0" y2="96.0" style="stroke:black; stroke-width:1px;" />
<line x1="282.875" y1="39.5" x2="258.5" y2="64.0" style="stroke:black; stroke-width:1px;" />
<line x1="282.875" y1="39.5" x2="292.5" y2="64.0" style="stroke:black; stroke-width:1px;" />
<line x1="292.5" y1="71.5" x2="292.5" y2="96.0" style="stroke:black; stroke-width:1px;" />
<line x1="282.875" y1="39.5" x2="340.0" y2="64.0" style="stroke:black; stroke-width:1px;" />
<line x1="340.0" y1="71.5" x2="340.0" y2="96.0" style="stroke:black; stroke-width:1px;" />
<line x1="282.875" y1="39.5" x2="439.125" y2="64.0" style="stroke:black; stroke-width:1px;" />
<line x1="282.875" y1="39.5" x2="535.75" y2="64.0" style="stroke:black; stroke-width:1px;" />
<line x1="535.75" y1="71.5" x2="356.0" y2="96.0" style="stroke:black; stroke-width:1px;" />
<line x1="535.75" y1="71.5" x2="389.0" y2="96.0" style="stroke:black; stroke-width:1px;" />
<line x1="389.0" y1="103.5" x2="345.5" y2="128.0" style="stroke:black; stroke-width:1px;" />
<line x1="345.5" y1="135.5" x2="345.5" y2="160.0" style="stroke:black; stroke-width:1px;" />
<line x1="389.0" y1="103.5" x2="399.0" y2="128.0" style="stroke:black; stroke-width:1px;" />
<line x1="399.0" y1="135.5" x2="399.0" y2="160.0" style="stroke:black; stroke-width:1px;" />
<line x1="399.0" y1="167.5" x2="399.0" y2="192.0" style="stroke:black; stroke-width:1px;" />
<line x1="389.0" y1="103.5" x2="432.5" y2="128.0" style="stroke:black; stroke-width:1px;" />
<line x1="535.75" y1="71.5" x2="539.5" y2="96.0" style="stroke:black; stroke-width:1px;" />
<line x1="539.5" y1="103.5" x2="463.5" y2="128.0" style="stroke:black; stroke-width:1px;" />
<line x1="463.5" y1="135.5" x2="463.5" y2="160.0" style="stroke:black; stroke-width:1px;" />
<line x1="463.5" y1="167.5" x2="463.5" y2="192.0" style="stroke:black; stroke-width:1px;" />
<line x1="539.5" y1="103.5" x2="518.0" y2="128.0" style="stroke:black; stroke-width:1px;" />
<line x1="518.0" y1="135.5" x2="518.0" y2="160.0" style="stroke:black; stroke-width:1px;" />
<line x1="539.5" y1="103.5" x2="592.0" y2="128.0" style="stroke:black; stroke-width:1px;" />
<line x1="592.0" y1="135.5" x2="543.0" y2="160.0" style="stroke:black; stroke-width:1px;" />
<line x1="543.0" y1="167.5" x2="543.0" y2="192.0" style="stroke:black; stroke-width:1px;" />
<line x1="543.0" y1="199.5" x2="543.0" y2="224.0" style="stroke:black; stroke-width:1px;" />
<line x1="543.0" y1="231.5" x2="543.0" y2="256.0" style="stroke:black; stroke-width:1px;" />
<line x1="592.0" y1="135.5" x2="592.0" y2="160.0" style="stroke:black; stroke-width:1px;" />
<line x1="592.0" y1="167.5" x2="592.0" y2="192.0" style="stroke:black; stroke-width:1px;" />
<line x1="592.0" y1="199.5" x2="592.0" y2="224.0" style="stroke:black; stroke-width:1px;" />
<line x1="592.0" y1="135.5" x2="641.0" y2="160.0" style="stroke:black; stroke-width:1px;" />
<line x1="641.0" y1="167.5" x2="641.0" y2="192.0" style="stroke:black; stroke-width:1px;" />
<line x1="641.0" y1="199.5" x2="641.0" y2="224.0" style="stroke:black; stroke-width:1px;" />
<line x1="641.0" y1="231.5" x2="641.0" y2="256.0" style="stroke:black; stroke-width:1px;" />
<line x1="539.5" y1="103.5" x2="615.5" y2="128.0" style="stroke:black; stroke-width:1px;" />
<line x1="535.75" y1="71.5" x2="679.0" y2="96.0" style="stroke:black; stroke-width:1px;" />
<line x1="679.0" y1="103.5" x2="649.0" y2="128.0" style="stroke:black; stroke-width:1px;" />
<line x1="679.0" y1="103.5" x2="685.5" y2="128.0" style="stroke:black; stroke-width:1px;" />
<line x1="685.5" y1="135.5" x2="685.5" y2="160.0" style="stroke:black; stroke-width:1px;" />
<line x1="685.5" y1="167.5" x2="685.5" y2="192.0" style="stroke:black; stroke-width:1px;" />
<line x1="685.5" y1="199.5" x2="685.5" y2="224.0" style="stroke:black; stroke-width:1px;" />
<line x1="679.0" y1="103.5" x2="709.0" y2="128.0" style="stroke:black; stroke-width:1px;" />
<line x1="535.75" y1="71.5" x2="715.5" y2="96.0" style="stroke:black; stroke-width:1px;" />
<line x1="589.984375" y1="7.5" x2="974.09375" y2="32.0" style="stroke:black; stroke-width:1px;" />
<line x1="974.09375" y1="39.5" x2="738.5" y2="64.0" style="stroke:black; stroke-width:1px;" />
<line x1="738.5" y1="71.5" x2="738.5" y2="96.0" style="stroke:black; stroke-width:1px;" />
<line x1="974.09375" y1="39.5" x2="811.0" y2="64.0" style="stroke:black; stroke-width:1px;" />
<line x1="811.0" y1="71.5" x2="811.0" y2="96.0" style="stroke:black; stroke-width:1px;" />
<line x1="974.09375" y1="39.5" x2="961.3958333333334" y2="64.0" style="stroke:black; stroke-width:1px;" />
<line x1="974.09375" y1="39.5" x2="1080.2916666666667" y2="64.0" style="stroke:black; stroke-width:1px;" />
<line x1="974.09375" y1="39.5" x2="1209.6875" y2="64.0" style="stroke:black; stroke-width:1px;" />
<line x1="1209.6875" y1="71.5" x2="835.0" y2="96.0" style="stroke:black; stroke-width:1px;" />
<line x1="1209.6875" y1="71.5" x2="868.0" y2="96.0" style="stroke:black; stroke-width:1px;" />
<line x1="868.0" y1="103.5" x2="824.5" y2="128.0" style="stroke:black; stroke-width:1px;" />
<line x1="824.5" y1="135.5" x2="824.5" y2="160.0" style="stroke:black; stroke-width:1px;" />
<line x1="868.0" y1="103.5" x2="878.0" y2="128.0" style="stroke:black; stroke-width:1px;" />
<line x1="878.0" y1="135.5" x2="878.0" y2="160.0" style="stroke:black; stroke-width:1px;" />
<line x1="878.0" y1="167.5" x2="878.0" y2="192.0" style="stroke:black; stroke-width:1px;" />
<line x1="868.0" y1="103.5" x2="911.5" y2="128.0" style="stroke:black; stroke-width:1px;" />
<line x1="1209.6875" y1="71.5" x2="989.0" y2="96.0" style="stroke:black; stroke-width:1px;" />
<line x1="989.0" y1="103.5" x2="945.5" y2="128.0" style="stroke:black; stroke-width:1px;" />
<line x1="945.5" y1="135.5" x2="945.5" y2="160.0" style="stroke:black; stroke-width:1px;" />
<line x1="989.0" y1="103.5" x2="999.0" y2="128.0" style="stroke:black; stroke-width:1px;" />
<line x1="999.0" y1="135.5" x2="999.0" y2="160.0" style="stroke:black; stroke-width:1px;" />
<line x1="999.0" y1="167.5" x2="999.0" y2="192.0" style="stroke:black; stroke-width:1px;" />
<line x1="989.0" y1="103.5" x2="1032.5" y2="128.0" style="stroke:black; stroke-width:1px;" />
<line x1="1209.6875" y1="71.5" x2="1110.0" y2="96.0" style="stroke:black; stroke-width:1px;" />
<line x1="1110.0" y1="103.5" x2="1066.5" y2="128.0" style="stroke:black; stroke-width:1px;" />
<line x1="1066.5" y1="135.5" x2="1066.5" y2="160.0" style="stroke:black; stroke-width:1px;" />
<line x1="1110.0" y1="103.5" x2="1120.0" y2="128.0" style="stroke:black; stroke-width:1px;" />
<line x1="1120.0" y1="135.5" x2="1120.0" y2="160.0" style="stroke:black; stroke-width:1px;" />
<line x1="1120.0" y1="167.5" x2="1120.0" y2="192.0" style="stroke:black; stroke-width:1px;" />
<line x1="1110.0" y1="103.5" x2="1153.5" y2="128.0" style="stroke:black; stroke-width:1px;" />
<line x1="1209.6875" y1="71.5" x2="1247.0" y2="96.0" style="stroke:black; stroke-width:1px;" />
<line x1="1247.0" y1="103.5" x2="1184.5" y2="128.0" style="stroke:black; stroke-width:1px;" />
<line x1="1184.5" y1="135.5" x2="1184.5" y2="160.0" style="stroke:black; stroke-width:1px;" />
<line x1="1184.5" y1="167.5" x2="1184.5" y2="192.0" style="stroke:black; stroke-width:1px;" />
<line x1="1247.0" y1="103.5" x2="1239.0" y2="128.0" style="stroke:black; stroke-width:1px;" />
<line x1="1239.0" y1="135.5" x2="1239.0" y2="160.0" style="stroke:black; stroke-width:1px;" />
<line x1="1247.0" y1="103.5" x2="1286.0" y2="128.0" style="stroke:black; stroke-width:1px;" />
<line x1="1286.0" y1="135.5" x2="1286.0" y2="160.0" style="stroke:black; stroke-width:1px;" />
<line x1="1286.0" y1="167.5" x2="1286.0" y2="192.0" style="stroke:black; stroke-width:1px;" />
<line x1="1286.0" y1="199.5" x2="1286.0" y2="224.0" style="stroke:black; stroke-width:1px;" />
<line x1="1247.0" y1="103.5" x2="1309.5" y2="128.0" style="stroke:black; stroke-width:1px;" />
<line x1="1209.6875" y1="71.5" x2="1403.0" y2="96.0" style="stroke:black; stroke-width:1px;" />
<line x1="1403.0" y1="103.5" x2="1340.5" y2="128.0" style="stroke:black; stroke-width:1px;" />
<line x1="1340.5" y1="135.5" x2="1340.5" y2="160.0" style="stroke:black; stroke-width:1px;" />
<line x1="1340.5" y1="167.5" x2="1340.5" y2="192.0" style="stroke:black; stroke-width:1px;" />
<line x1="1403.0" y1="103.5" x2="1395.0" y2="128.0" style="stroke:black; stroke-width:1px;" />
<line x1="1395.0" y1="135.5" x2="1395.0" y2="160.0" style="stroke:black; stroke-width:1px;" />
<line x1="1403.0" y1="103.5" x2="1442.0" y2="128.0" style="stroke:black; stroke-width:1px;" />
<line x1="1442.0" y1="135.5" x2="1442.0" y2="160.0" style="stroke:black; stroke-width:1px;" />
<line x1="1442.0" y1="167.5" x2="1442.0" y2="192.0" style="stroke:black; stroke-width:1px;" />
<line x1="1442.0" y1="199.5" x2="1442.0" y2="224.0" style="stroke:black; stroke-width:1px;" />
<line x1="1403.0" y1="103.5" x2="1465.5" y2="128.0" style="stroke:black; stroke-width:1px;" />
<line x1="1209.6875" y1="71.5" x2="1547.875" y2="96.0" style="stroke:black; stroke-width:1px;" />
<line x1="1547.875" y1="103.5" x2="1496.5" y2="128.0" style="stroke:black; stroke-width:1px;" />
<line x1="1496.5" y1="135.5" x2="1496.5" y2="160.0" style="stroke:black; stroke-width:1px;" />
<line x1="1496.5" y1="167.5" x2="1496.5" y2="192.0" style="stroke:black; stroke-width:1px;" />
<line x1="1547.875" y1="103.5" x2="1551.625" y2="128.0" style="stroke:black; stroke-width:1px;" />
<line x1="1551.625" y1="135.5" x2="1551.625" y2="160.0" style="stroke:black; stroke-width:1px;" />
<line x1="1547.875" y1="103.5" x2="1599.25" y2="128.0" style="stroke:black; stroke-width:1px;" />
<line x1="1599.25" y1="135.5" x2="1599.25" y2="160.0" style="stroke:black; stroke-width:1px;" />
<line x1="1599.25" y1="167.5" x2="1572.0" y2="192.0" style="stroke:black; stroke-width:1px;" />
<line x1="1572.0" y1="199.5" x2="1500.75" y2="224.0" style="stroke:black; stroke-width:1px;" />
<line x1="1500.75" y1="231.5" x2="1500.75" y2="256.0" style="stroke:black; stroke-width:1px;" />
<line x1="1572.0" y1="199.5" x2="1547.25" y2="224.0" style="stroke:black; stroke-width:1px;" />
<line x1="1572.0" y1="199.5" x2="1571.25" y2="224.0" style="stroke:black; stroke-width:1px;" />
<line x1="1571.25" y1="231.5" x2="1571.25" y2="256.0" style="stroke:black; stroke-width:1px;" />
<line x1="1571.25" y1="263.5" x2="1571.25" y2="288.0" style="stroke:black; stroke-width:1px;" />
<line x1="1571.25" y1="295.5" x2="1571.25" y2="320.0" style="stroke:black; stroke-width:1px;" />
<line x1="1572.0" y1="199.5" x2="1595.25" y2="224.0" style="stroke:black; stroke-width:1px;" />
<line x1="1572.0" y1="199.5" x2="1619.25" y2="224.0" style="stroke:black; stroke-width:1px;" />
<line x1="1619.25" y1="231.5" x2="1619.25" y2="256.0" style="stroke:black; stroke-width:1px;" />
<line x1="1619.25" y1="263.5" x2="1619.25" y2="288.0" style="stroke:black; stroke-width:1px;" />
<line x1="1619.25" y1="295.5" x2="1619.25" y2="320.0" style="stroke:black; stroke-width:1px;" />
<line x1="1572.0" y1="199.5" x2="1643.25" y2="224.0" style="stroke:black; stroke-width:1px;" />
<line x1="1599.25" y1="167.5" x2="1626.5" y2="192.0" style="stroke:black; stroke-width:1px;" />
<line x1="1209.6875" y1="71.5" x2="1584.375" y2="96.0" style="stroke:black; stroke-width:1px;" />
<line x1="589.984375" y1="7.5" x2="1019.59375" y2="32.0" style="stroke:black; stroke-width:1px;" />
<rect x="446.0" y="160.0" width="35.0" height="15.0" style="fill:orange; stroke:rgb(0,0,0);" rx="1"/>
<text x="448" y="169" style="font-family:sans-serif;font-size:10px;">
var_id
</text>
<rect x="1549.75" y="256.0" width="43.0" height="15.0" style="fill:orange; stroke:rgb(0,0,0);" rx="1"/>
<text x="1551" y="265" style="font-family:sans-serif;font-size:10px;">
location
</text>
<rect x="854.5" y="128.0" width="47.0" height="15.0" style="fill:orange; stroke:rgb(0,0,0);" rx="1"/>
<text x="856" y="137" style="font-family:sans-serif;font-size:10px;">
field_var
</text>
<rect x="711.5" y="96.0" width="8.0" height="15.0" style="fill:orange; stroke:rgb(0,0,0);" rx="1"/>
<text x="713" y="105" style="font-family:sans-serif;font-size:10px;">
}
</text>
<rect x="1485.25" y="256.0" width="31.0" height="15.0" style="fill:orange; stroke:rgb(0,0,0);" rx="1"/>
<text x="1487" y="265" style="font-family:sans-serif;font-size:10px;">
suma
</text>
<rect x="1623.0" y="192.0" width="7.0" height="15.0" style="fill:orange; stroke:rgb(0,0,0);" rx="1"/>
<text x="1625" y="201" style="font-family:sans-serif;font-size:10px;">
;
</text>
<rect x="233.375" y="32.0" width="8.0" height="15.0" style="fill:orange; stroke:rgb(0,0,0);" rx="1"/>
<text x="235" y="41" style="font-family:sans-serif;font-size:10px;">
{
</text>
<rect x="64.5" y="64.0" width="76.0" height="15.0" style="fill:orange; stroke:rgb(0,0,0);" rx="1"/>
<text x="66" y="73" style="font-family:sans-serif;font-size:10px;">
method_name
</text>
<rect x="530.0" y="160.0" width="26.0" height="15.0" style="fill:orange; stroke:rgb(0,0,0);" rx="1"/>
<text x="532" y="169" style="font-family:sans-serif;font-size:10px;">
expr
</text>
<rect x="180.875" y="32.0" width="47.0" height="15.0" style="fill:orange; stroke:rgb(0,0,0);" rx="1"/>
<text x="182" y="41" style="font-family:sans-serif;font-size:10px;">
Program
</text>
<rect x="664.0" y="160.0" width="43.0" height="15.0" style="fill:orange; stroke:rgb(0,0,0);" rx="1"/>
<text x="666" y="169" style="font-family:sans-serif;font-size:10px;">
location
</text>
<rect x="573.0" y="160.0" width="38.0" height="15.0" style="fill:orange; stroke:rgb(0,0,0);" rx="1"/>
<text x="575" y="169" style="font-family:sans-serif;font-size:10px;">
bin_op
</text>
<rect x="773.0" y="64.0" width="76.0" height="15.0" style="fill:orange; stroke:rgb(0,0,0);" rx="1"/>
<text x="775" y="73" style="font-family:sans-serif;font-size:10px;">
method_name
</text>
<rect x="1220.0" y="96.0" width="54.0" height="15.0" style="fill:orange; stroke:rgb(0,0,0);" rx="1"/>
<text x="1222" y="105" style="font-family:sans-serif;font-size:10px;">
statement
</text>
<rect x="1015.59375" y="32.0" width="8.0" height="15.0" style="fill:orange; stroke:rgb(0,0,0);" rx="1"/>
<text x="1017" y="41" style="font-family:sans-serif;font-size:10px;">
}
</text>
<rect x="1367.0" y="128.0" width="56.0" height="15.0" style="fill:orange; stroke:rgb(0,0,0);" rx="1"/>
<text x="1369" y="137" style="font-family:sans-serif;font-size:10px;">
assign_op
</text>
<rect x="226.0" y="96.0" width="10.0" height="15.0" style="fill:orange; stroke:rgb(0,0,0);" rx="1"/>
<text x="228" y="105" style="font-family:sans-serif;font-size:10px;">
a
</text>
<rect x="145.0" y="64.0" width="8.0" height="15.0" style="fill:orange; stroke:rgb(0,0,0);" rx="1"/>
<text x="147" y="73" style="font-family:sans-serif;font-size:10px;">
(
</text>
<rect x="1475.0" y="128.0" width="43.0" height="15.0" style="fill:orange; stroke:rgb(0,0,0);" rx="1"/>
<text x="1477" y="137" style="font-family:sans-serif;font-size:10px;">
location
</text>
<rect x="1566.75" y="160.0" width="65.0" height="15.0" style="fill:orange; stroke:rgb(0,0,0);" rx="1"/>
<text x="1568" y="169" style="font-family:sans-serif;font-size:10px;">
method_call
</text>
<rect x="1376.0" y="96.0" width="54.0" height="15.0" style="fill:orange; stroke:rgb(0,0,0);" rx="1"/>
<text x="1378" y="105" style="font-family:sans-serif;font-size:10px;">
statement
</text>
<rect x="937.5" y="160.0" width="16.0" height="15.0" style="fill:orange; stroke:rgb(0,0,0);" rx="1"/>
<text x="939" y="169" style="font-family:sans-serif;font-size:10px;">
int
</text>
<rect x="87.0" y="96.0" width="31.0" height="15.0" style="fill:orange; stroke:rgb(0,0,0);" rx="1"/>
<text x="89" y="105" style="font-family:sans-serif;font-size:10px;">
suma
</text>
<rect x="612.0" y="128.0" width="7.0" height="15.0" style="fill:orange; stroke:rgb(0,0,0);" rx="1"/>
<text x="614" y="137" style="font-family:sans-serif;font-size:10px;">
;
</text>
<rect x="538.0" y="256.0" width="10.0" height="15.0" style="fill:orange; stroke:rgb(0,0,0);" rx="1"/>
<text x="540" y="265" style="font-family:sans-serif;font-size:10px;">
a
</text>
<rect x="862.0" y="192.0" width="32.0" height="15.0" style="fill:orange; stroke:rgb(0,0,0);" rx="1"/>
<text x="864" y="201" style="font-family:sans-serif;font-size:10px;">
num1
</text>
<rect x="1429.0" y="128.0" width="26.0" height="15.0" style="fill:orange; stroke:rgb(0,0,0);" rx="1"/>
<text x="1431" y="137" style="font-family:sans-serif;font-size:10px;">
expr
</text>
<rect x="1479.0" y="160.0" width="35.0" height="15.0" style="fill:orange; stroke:rgb(0,0,0);" rx="1"/>
<text x="1481" y="169" style="font-family:sans-serif;font-size:10px;">
var_id
</text>
<rect x="1586.25" y="128.0" width="26.0" height="15.0" style="fill:orange; stroke:rgb(0,0,0);" rx="1"/>
<text x="1588" y="137" style="font-family:sans-serif;font-size:10px;">
expr
</text>
<rect x="628.0" y="160.0" width="26.0" height="15.0" style="fill:orange; stroke:rgb(0,0,0);" rx="1"/>
<text x="630" y="169" style="font-family:sans-serif;font-size:10px;">
expr
</text>
<rect x="1390.0" y="160.0" width="10.0" height="15.0" style="fill:orange; stroke:rgb(0,0,0);" rx="1"/>
<text x="1392" y="169" style="font-family:sans-serif;font-size:10px;">
=
</text>
<rect x="632.0" y="128.0" width="34.0" height="15.0" style="fill:orange; stroke:rgb(0,0,0);" rx="1"/>
<text x="634" y="137" style="font-family:sans-serif;font-size:10px;">
return
</text>
<rect x="6.0" y="96.0" width="48.0" height="15.0" style="fill:orange; stroke:rgb(0,0,0);" rx="1"/>
<text x="8" y="105" style="font-family:sans-serif;font-size:10px;">
var_type
</text>
<rect x="1102.5" y="160.0" width="35.0" height="15.0" style="fill:orange; stroke:rgb(0,0,0);" rx="1"/>
<text x="1104" y="169" style="font-family:sans-serif;font-size:10px;">
var_id
</text>
<rect x="1270.5" y="160.0" width="31.0" height="15.0" style="fill:orange; stroke:rgb(0,0,0);" rx="1"/>
<text x="1272" y="169" style="font-family:sans-serif;font-size:10px;">
literal
</text>
<rect x="429.0" y="128.0" width="7.0" height="15.0" style="fill:orange; stroke:rgb(0,0,0);" rx="1"/>
<text x="431" y="137" style="font-family:sans-serif;font-size:10px;">
;
</text>
<rect x="1601.75" y="288.0" width="35.0" height="15.0" style="fill:orange; stroke:rgb(0,0,0);" rx="1"/>
<text x="1603" y="297" style="font-family:sans-serif;font-size:10px;">
var_id
</text>
<rect x="1211.0" y="128.0" width="56.0" height="15.0" style="fill:orange; stroke:rgb(0,0,0);" rx="1"/>
<text x="1213" y="137" style="font-family:sans-serif;font-size:10px;">
assign_op
</text>
<rect x="175.5" y="96.0" width="16.0" height="15.0" style="fill:orange; stroke:rgb(0,0,0);" rx="1"/>
<text x="177" y="105" style="font-family:sans-serif;font-size:10px;">
int
</text>
<rect x="566.984375" y="0.0" width="46.0" height="15.0" style="fill:orange; stroke:rgb(0,0,0);" rx="1"/>
<text x="568" y="9" style="font-family:sans-serif;font-size:10px;">
program
</text>
<rect x="1273.0" y="128.0" width="26.0" height="15.0" style="fill:orange; stroke:rgb(0,0,0);" rx="1"/>
<text x="1275" y="137" style="font-family:sans-serif;font-size:10px;">
expr
</text>
<rect x="1580.375" y="96.0" width="8.0" height="15.0" style="fill:orange; stroke:rgb(0,0,0);" rx="1"/>
<text x="1582" y="105" style="font-family:sans-serif;font-size:10px;">
}
</text>
<rect x="1234.0" y="160.0" width="10.0" height="15.0" style="fill:orange; stroke:rgb(0,0,0);" rx="1"/>
<text x="1236" y="169" style="font-family:sans-serif;font-size:10px;">
=
</text>
<rect x="1324.5" y="192.0" width="32.0" height="15.0" style="fill:orange; stroke:rgb(0,0,0);" rx="1"/>
<text x="1326" y="201" style="font-family:sans-serif;font-size:10px;">
num2
</text>
<rect x="255.0" y="64.0" width="7.0" height="15.0" style="fill:orange; stroke:rgb(0,0,0);" rx="1"/>
<text x="257" y="73" style="font-family:sans-serif;font-size:10px;">
,
</text>
<rect x="335.0" y="96.0" width="10.0" height="15.0" style="fill:orange; stroke:rgb(0,0,0);" rx="1"/>
<text x="337" y="105" style="font-family:sans-serif;font-size:10px;">
b
</text>
<rect x="672.5" y="128.0" width="26.0" height="15.0" style="fill:orange; stroke:rgb(0,0,0);" rx="1"/>
<text x="674" y="137" style="font-family:sans-serif;font-size:10px;">
expr
</text>
<rect x="668.0" y="192.0" width="35.0" height="15.0" style="fill:orange; stroke:rgb(0,0,0);" rx="1"/>
<text x="670" y="201" style="font-family:sans-serif;font-size:10px;">
var_id
</text>
<rect x="680.5" y="224.0" width="10.0" height="15.0" style="fill:orange; stroke:rgb(0,0,0);" rx="1"/>
<text x="682" y="233" style="font-family:sans-serif;font-size:10px;">
c
</text>
<rect x="983.0" y="192.0" width="32.0" height="15.0" style="fill:orange; stroke:rgb(0,0,0);" rx="1"/>
<text x="985" y="201" style="font-family:sans-serif;font-size:10px;">
num2
</text>
<rect x="381.5" y="160.0" width="35.0" height="15.0" style="fill:orange; stroke:rgb(0,0,0);" rx="1"/>
<text x="383" y="169" style="font-family:sans-serif;font-size:10px;">
var_id
</text>
<rect x="1042.5" y="128.0" width="48.0" height="15.0" style="fill:orange; stroke:rgb(0,0,0);" rx="1"/>
<text x="1044" y="137" style="font-family:sans-serif;font-size:10px;">
var_type
</text>
<rect x="-1.0" y="64.0" width="62.0" height="15.0" style="fill:orange; stroke:rgb(0,0,0);" rx="1"/>
<text x="1" y="73" style="font-family:sans-serif;font-size:10px;">
return_type
</text>
<rect x="707.5" y="64.0" width="62.0" height="15.0" style="fill:orange; stroke:rgb(0,0,0);" rx="1"/>
<text x="709" y="73" style="font-family:sans-serif;font-size:10px;">
return_type
</text>
<rect x="1167.0" y="160.0" width="35.0" height="15.0" style="fill:orange; stroke:rgb(0,0,0);" rx="1"/>
<text x="1169" y="169" style="font-family:sans-serif;font-size:10px;">
var_id
</text>
<rect x="1426.5" y="160.0" width="31.0" height="15.0" style="fill:orange; stroke:rgb(0,0,0);" rx="1"/>
<text x="1428" y="169" style="font-family:sans-serif;font-size:10px;">
literal
</text>
<rect x="1546.625" y="160.0" width="10.0" height="15.0" style="fill:orange; stroke:rgb(0,0,0);" rx="1"/>
<text x="1548" y="169" style="font-family:sans-serif;font-size:10px;">
=
</text>
<rect x="1029.0" y="128.0" width="7.0" height="15.0" style="fill:orange; stroke:rgb(0,0,0);" rx="1"/>
<text x="1031" y="137" style="font-family:sans-serif;font-size:10px;">
;
</text>
<rect x="246.375" y="32.0" width="73.0" height="15.0" style="fill:orange; stroke:rgb(0,0,0);" rx="1"/>
<text x="248" y="41" style="font-family:sans-serif;font-size:10px;">
method_declr
</text>
<rect x="435.125" y="64.0" width="8.0" height="15.0" style="fill:orange; stroke:rgb(0,0,0);" rx="1"/>
<text x="437" y="73" style="font-family:sans-serif;font-size:10px;">
)
</text>
<rect x="1194.6875" y="64.0" width="30.0" height="15.0" style="fill:orange; stroke:rgb(0,0,0);" rx="1"/>
<text x="1196" y="73" style="font-family:sans-serif;font-size:10px;">
block
</text>
<rect x="652.0" y="96.0" width="54.0" height="15.0" style="fill:orange; stroke:rgb(0,0,0);" rx="1"/>
<text x="654" y="105" style="font-family:sans-serif;font-size:10px;">
statement
</text>
<rect x="1520.875" y="96.0" width="54.0" height="15.0" style="fill:orange; stroke:rgb(0,0,0);" rx="1"/>
<text x="1522" y="105" style="font-family:sans-serif;font-size:10px;">
statement
</text>
<rect x="579.0" y="128.0" width="26.0" height="15.0" style="fill:orange; stroke:rgb(0,0,0);" rx="1"/>
<text x="581" y="137" style="font-family:sans-serif;font-size:10px;">
expr
</text>
<rect x="705.5" y="128.0" width="7.0" height="15.0" style="fill:orange; stroke:rgb(0,0,0);" rx="1"/>
<text x="707" y="137" style="font-family:sans-serif;font-size:10px;">
;
</text>
<rect x="1639.25" y="224.0" width="8.0" height="15.0" style="fill:orange; stroke:rgb(0,0,0);" rx="1"/>
<text x="1641" y="233" style="font-family:sans-serif;font-size:10px;">
)
</text>
<rect x="569.0" y="192.0" width="46.0" height="15.0" style="fill:orange; stroke:rgb(0,0,0);" rx="1"/>
<text x="571" y="201" style="font-family:sans-serif;font-size:10px;">
arith_op
</text>
<rect x="337.5" y="160.0" width="16.0" height="15.0" style="fill:orange; stroke:rgb(0,0,0);" rx="1"/>
<text x="339" y="169" style="font-family:sans-serif;font-size:10px;">
int
</text>
<rect x="521.5" y="192.0" width="43.0" height="15.0" style="fill:orange; stroke:rgb(0,0,0);" rx="1"/>
<text x="523" y="201" style="font-family:sans-serif;font-size:10px;">
location
</text>
<rect x="159.5" y="64.0" width="48.0" height="15.0" style="fill:orange; stroke:rgb(0,0,0);" rx="1"/>
<text x="161" y="73" style="font-family:sans-serif;font-size:10px;">
var_type
</text>
<rect x="394.0" y="192.0" width="10.0" height="15.0" style="fill:orange; stroke:rgb(0,0,0);" rx="1"/>
<text x="396" y="201" style="font-family:sans-serif;font-size:10px;">
c
</text>
<rect x="1543.25" y="224.0" width="8.0" height="15.0" style="fill:orange; stroke:rgb(0,0,0);" rx="1"/>
<text x="1545" y="233" style="font-family:sans-serif;font-size:10px;">
(
</text>
<rect x="1553.75" y="288.0" width="35.0" height="15.0" style="fill:orange; stroke:rgb(0,0,0);" rx="1"/>
<text x="1555" y="297" style="font-family:sans-serif;font-size:10px;">
var_id
</text>
<rect x="619.5" y="192.0" width="43.0" height="15.0" style="fill:orange; stroke:rgb(0,0,0);" rx="1"/>
<text x="621" y="201" style="font-family:sans-serif;font-size:10px;">
location
</text>
<rect x="860.5" y="160.0" width="35.0" height="15.0" style="fill:orange; stroke:rgb(0,0,0);" rx="1"/>
<text x="862" y="169" style="font-family:sans-serif;font-size:10px;">
var_id
</text>
<rect x="587.0" y="224.0" width="10.0" height="15.0" style="fill:orange; stroke:rgb(0,0,0);" rx="1"/>
<text x="589" y="233" style="font-family:sans-serif;font-size:10px;">
+
</text>
<rect x="908.0" y="128.0" width="7.0" height="15.0" style="fill:orange; stroke:rgb(0,0,0);" rx="1"/>
<text x="910" y="137" style="font-family:sans-serif;font-size:10px;">
;
</text>
<rect x="937.59375" y="32.0" width="73.0" height="15.0" style="fill:orange; stroke:rgb(0,0,0);" rx="1"/>
<text x="939" y="41" style="font-family:sans-serif;font-size:10px;">
method_declr
</text>
<rect x="1525.0" y="192.0" width="94.0" height="15.0" style="fill:orange; stroke:rgb(0,0,0);" rx="1"/>
<text x="1527" y="201" style="font-family:sans-serif;font-size:10px;">
method_call_inter
</text>
<rect x="442.0" y="128.0" width="43.0" height="15.0" style="fill:orange; stroke:rgb(0,0,0);" rx="1"/>
<text x="444" y="137" style="font-family:sans-serif;font-size:10px;">
location
</text>
<rect x="981.5" y="160.0" width="35.0" height="15.0" style="fill:orange; stroke:rgb(0,0,0);" rx="1"/>
<text x="983" y="169" style="font-family:sans-serif;font-size:10px;">
var_id
</text>
<rect x="957.3958333333334" y="64.0" width="8.0" height="15.0" style="fill:orange; stroke:rgb(0,0,0);" rx="1"/>
<text x="959" y="73" style="font-family:sans-serif;font-size:10px;">
(
</text>
<rect x="726.0" y="96.0" width="25.0" height="15.0" style="fill:orange; stroke:rgb(0,0,0);" rx="1"/>
<text x="728" y="105" style="font-family:sans-serif;font-size:10px;">
void
</text>
<rect x="800.5" y="128.0" width="48.0" height="15.0" style="fill:orange; stroke:rgb(0,0,0);" rx="1"/>
<text x="802" y="137" style="font-family:sans-serif;font-size:10px;">
var_type
</text>
<rect x="1558.25" y="224.0" width="26.0" height="15.0" style="fill:orange; stroke:rgb(0,0,0);" rx="1"/>
<text x="1560" y="233" style="font-family:sans-serif;font-size:10px;">
expr
</text>
<rect x="1281.0" y="224.0" width="10.0" height="15.0" style="fill:orange; stroke:rgb(0,0,0);" rx="1"/>
<text x="1283" y="233" style="font-family:sans-serif;font-size:10px;">
2
</text>
<rect x="1319.0" y="128.0" width="43.0" height="15.0" style="fill:orange; stroke:rgb(0,0,0);" rx="1"/>
<text x="1321" y="137" style="font-family:sans-serif;font-size:10px;">
location
</text>
<rect x="1261.0" y="192.0" width="50.0" height="15.0" style="fill:orange; stroke:rgb(0,0,0);" rx="1"/>
<text x="1263" y="201" style="font-family:sans-serif;font-size:10px;">
int_literal
</text>
<rect x="623.5" y="224.0" width="35.0" height="15.0" style="fill:orange; stroke:rgb(0,0,0);" rx="1"/>
<text x="625" y="233" style="font-family:sans-serif;font-size:10px;">
var_id
</text>
<rect x="1323.0" y="160.0" width="35.0" height="15.0" style="fill:orange; stroke:rgb(0,0,0);" rx="1"/>
<text x="1325" y="169" style="font-family:sans-serif;font-size:10px;">
var_id
</text>
<rect x="525.5" y="224.0" width="35.0" height="15.0" style="fill:orange; stroke:rgb(0,0,0);" rx="1"/>
<text x="527" y="233" style="font-family:sans-serif;font-size:10px;">
var_id
</text>
<rect x="1417.0" y="192.0" width="50.0" height="15.0" style="fill:orange; stroke:rgb(0,0,0);" rx="1"/>
<text x="1419" y="201" style="font-family:sans-serif;font-size:10px;">
int_literal
</text>
<rect x="1555.25" y="320.0" width="32.0" height="15.0" style="fill:orange; stroke:rgb(0,0,0);" rx="1"/>
<text x="1557" y="329" style="font-family:sans-serif;font-size:10px;">
num1
</text>
<rect x="816.5" y="160.0" width="16.0" height="15.0" style="fill:orange; stroke:rgb(0,0,0);" rx="1"/>
<text x="818" y="169" style="font-family:sans-serif;font-size:10px;">
int
</text>
<rect x="921.5" y="128.0" width="48.0" height="15.0" style="fill:orange; stroke:rgb(0,0,0);" rx="1"/>
<text x="923" y="137" style="font-family:sans-serif;font-size:10px;">
var_type
</text>
<rect x="490.0" y="128.0" width="56.0" height="15.0" style="fill:orange; stroke:rgb(0,0,0);" rx="1"/>
<text x="492" y="137" style="font-family:sans-serif;font-size:10px;">
assign_op
</text>
<rect x="636.0" y="256.0" width="10.0" height="15.0" style="fill:orange; stroke:rgb(0,0,0);" rx="1"/>
<text x="638" y="265" style="font-family:sans-serif;font-size:10px;">
b
</text>
<rect x="366.5" y="96.0" width="45.0" height="15.0" style="fill:orange; stroke:rgb(0,0,0);" rx="1"/>
<text x="368" y="105" style="font-family:sans-serif;font-size:10px;">
vardeclr
</text>
<rect x="1606.25" y="224.0" width="26.0" height="15.0" style="fill:orange; stroke:rgb(0,0,0);" rx="1"/>
<text x="1608" y="233" style="font-family:sans-serif;font-size:10px;">
expr
</text>
<rect x="352.0" y="96.0" width="8.0" height="15.0" style="fill:orange; stroke:rgb(0,0,0);" rx="1"/>
<text x="354" y="105" style="font-family:sans-serif;font-size:10px;">
{
</text>
<rect x="512.5" y="96.0" width="54.0" height="15.0" style="fill:orange; stroke:rgb(0,0,0);" rx="1"/>
<text x="514" y="105" style="font-family:sans-serif;font-size:10px;">
statement
</text>
<rect x="1471.0" y="192.0" width="51.0" height="15.0" style="fill:orange; stroke:rgb(0,0,0);" rx="1"/>
<text x="1473" y="201" style="font-family:sans-serif;font-size:10px;">
resultado
</text>
<rect x="22.0" y="128.0" width="16.0" height="15.0" style="fill:orange; stroke:rgb(0,0,0);" rx="1"/>
<text x="24" y="137" style="font-family:sans-serif;font-size:10px;">
int
</text>
<rect x="145.375" y="32.0" width="30.0" height="15.0" style="fill:orange; stroke:rgb(0,0,0);" rx="1"/>
<text x="147" y="41" style="font-family:sans-serif;font-size:10px;">
class
</text>
<rect x="458.5" y="192.0" width="10.0" height="15.0" style="fill:orange; stroke:rgb(0,0,0);" rx="1"/>
<text x="460" y="201" style="font-family:sans-serif;font-size:10px;">
c
</text>
<rect x="845.5" y="96.0" width="45.0" height="15.0" style="fill:orange; stroke:rgb(0,0,0);" rx="1"/>
<text x="847" y="105" style="font-family:sans-serif;font-size:10px;">
vardeclr
</text>
<rect x="975.5" y="128.0" width="47.0" height="15.0" style="fill:orange; stroke:rgb(0,0,0);" rx="1"/>
<text x="977" y="137" style="font-family:sans-serif;font-size:10px;">
field_var
</text>
<rect x="1094.5" y="192.0" width="51.0" height="15.0" style="fill:orange; stroke:rgb(0,0,0);" rx="1"/>
<text x="1096" y="201" style="font-family:sans-serif;font-size:10px;">
resultado
</text>
<rect x="1523.625" y="128.0" width="56.0" height="15.0" style="fill:orange; stroke:rgb(0,0,0);" rx="1"/>
<text x="1525" y="137" style="font-family:sans-serif;font-size:10px;">
assign_op
</text>
<rect x="1591.75" y="224.0" width="7.0" height="15.0" style="fill:orange; stroke:rgb(0,0,0);" rx="1"/>
<text x="1593" y="233" style="font-family:sans-serif;font-size:10px;">
,
</text>
<rect x="1597.75" y="256.0" width="43.0" height="15.0" style="fill:orange; stroke:rgb(0,0,0);" rx="1"/>
<text x="1599" y="265" style="font-family:sans-serif;font-size:10px;">
location
</text>
<rect x="1603.25" y="320.0" width="32.0" height="15.0" style="fill:orange; stroke:rgb(0,0,0);" rx="1"/>
<text x="1605" y="329" style="font-family:sans-serif;font-size:10px;">
num2
</text>
<rect x="1096.5" y="128.0" width="47.0" height="15.0" style="fill:orange; stroke:rgb(0,0,0);" rx="1"/>
<text x="1098" y="137" style="font-family:sans-serif;font-size:10px;">
field_var
</text>
<rect x="513.0" y="160.0" width="10.0" height="15.0" style="fill:orange; stroke:rgb(0,0,0);" rx="1"/>
<text x="515" y="169" style="font-family:sans-serif;font-size:10px;">
=
</text>
<rect x="966.5" y="96.0" width="45.0" height="15.0" style="fill:orange; stroke:rgb(0,0,0);" rx="1"/>
<text x="968" y="105" style="font-family:sans-serif;font-size:10px;">
vardeclr
</text>
<rect x="322.5" y="64.0" width="35.0" height="15.0" style="fill:orange; stroke:rgb(0,0,0);" rx="1"/>
<text x="324" y="73" style="font-family:sans-serif;font-size:10px;">
var_id
</text>
<rect x="268.5" y="64.0" width="48.0" height="15.0" style="fill:orange; stroke:rgb(0,0,0);" rx="1"/>
<text x="270" y="73" style="font-family:sans-serif;font-size:10px;">
var_type
</text>
<rect x="375.5" y="128.0" width="47.0" height="15.0" style="fill:orange; stroke:rgb(0,0,0);" rx="1"/>
<text x="377" y="137" style="font-family:sans-serif;font-size:10px;">
field_var
</text>
<rect x="1462.0" y="128.0" width="7.0" height="15.0" style="fill:orange; stroke:rgb(0,0,0);" rx="1"/>
<text x="1464" y="137" style="font-family:sans-serif;font-size:10px;">
;
</text>
<rect x="1087.5" y="96.0" width="45.0" height="15.0" style="fill:orange; stroke:rgb(0,0,0);" rx="1"/>
<text x="1089" y="105" style="font-family:sans-serif;font-size:10px;">
vardeclr
</text>
<rect x="831.0" y="96.0" width="8.0" height="15.0" style="fill:orange; stroke:rgb(0,0,0);" rx="1"/>
<text x="833" y="105" style="font-family:sans-serif;font-size:10px;">
{
</text>
<rect x="284.5" y="96.0" width="16.0" height="15.0" style="fill:orange; stroke:rgb(0,0,0);" rx="1"/>
<text x="286" y="105" style="font-family:sans-serif;font-size:10px;">
int
</text>
<rect x="797.0" y="96.0" width="28.0" height="15.0" style="fill:orange; stroke:rgb(0,0,0);" rx="1"/>
<text x="799" y="105" style="font-family:sans-serif;font-size:10px;">
main
</text>
<rect x="1150.0" y="128.0" width="7.0" height="15.0" style="fill:orange; stroke:rgb(0,0,0);" rx="1"/>
<text x="1152" y="137" style="font-family:sans-serif;font-size:10px;">
;
</text>
<rect x="1462.75" y="224.0" width="76.0" height="15.0" style="fill:orange; stroke:rgb(0,0,0);" rx="1"/>
<text x="1464" y="233" style="font-family:sans-serif;font-size:10px;">
method_name
</text>
<rect x="520.75" y="64.0" width="30.0" height="15.0" style="fill:orange; stroke:rgb(0,0,0);" rx="1"/>
<text x="522" y="73" style="font-family:sans-serif;font-size:10px;">
block
</text>
<rect x="1163.0" y="128.0" width="43.0" height="15.0" style="fill:orange; stroke:rgb(0,0,0);" rx="1"/>
<text x="1165" y="137" style="font-family:sans-serif;font-size:10px;">
location
</text>
<rect x="213.5" y="64.0" width="35.0" height="15.0" style="fill:orange; stroke:rgb(0,0,0);" rx="1"/>
<text x="215" y="73" style="font-family:sans-serif;font-size:10px;">
var_id
</text>
<rect x="1168.5" y="192.0" width="32.0" height="15.0" style="fill:orange; stroke:rgb(0,0,0);" rx="1"/>
<text x="1170" y="201" style="font-family:sans-serif;font-size:10px;">
num1
</text>
<rect x="1076.2916666666667" y="64.0" width="8.0" height="15.0" style="fill:orange; stroke:rgb(0,0,0);" rx="1"/>
<text x="1078" y="73" style="font-family:sans-serif;font-size:10px;">
)
</text>
<rect x="321.5" y="128.0" width="48.0" height="15.0" style="fill:orange; stroke:rgb(0,0,0);" rx="1"/>
<text x="323" y="137" style="font-family:sans-serif;font-size:10px;">
var_type
</text>
<rect x="1058.5" y="160.0" width="16.0" height="15.0" style="fill:orange; stroke:rgb(0,0,0);" rx="1"/>
<text x="1060" y="169" style="font-family:sans-serif;font-size:10px;">
int
</text>
<rect x="1306.0" y="128.0" width="7.0" height="15.0" style="fill:orange; stroke:rgb(0,0,0);" rx="1"/>
<text x="1308" y="137" style="font-family:sans-serif;font-size:10px;">
;
</text>
<rect x="1437.0" y="224.0" width="10.0" height="15.0" style="fill:orange; stroke:rgb(0,0,0);" rx="1"/>
<text x="1439" y="233" style="font-family:sans-serif;font-size:10px;">
3
</text>
</svg>